<svg width="470" height="399" viewBox="0 0 470 399" fill="none" xmlns="http://www.w3.org/2000/svg">
<g filter="url(#filter0_f_1_12)">
<path d="M362.5 255.5C362.5 305.206 243.206 317.5 193.5 317.5C143.794 317.5 75 212.705 75 163C75 113.294 164.794 163 214.5 163C264.206 163 362.5 205.794 362.5 255.5Z" fill="url(#paint0_linear_1_12)" fill-opacity="0.6"/>
<path d="M362.5 255.5C362.5 305.206 243.206 317.5 193.5 317.5C143.794 317.5 75 212.705 75 163C75 113.294 164.794 163 214.5 163C264.206 163 362.5 205.794 362.5 255.5Z" fill="url(#paint1_linear_1_12)" fill-opacity="0.2"/>
</g>
<g filter="url(#filter1_f_1_12)">
<path d="M362.5 255.5C362.5 305.206 243.206 317.5 193.5 317.5C143.794 317.5 75 212.705 75 163C75 113.294 164.794 163 214.5 163C264.206 163 362.5 205.794 362.5 255.5Z" fill="url(#paint2_linear_1_12)" fill-opacity="0.6"/>
<path d="M362.5 255.5C362.5 305.206 243.206 317.5 193.5 317.5C143.794 317.5 75 212.705 75 163C75 113.294 164.794 163 214.5 163C264.206 163 362.5 205.794 362.5 255.5Z" fill="url(#paint3_linear_1_12)" fill-opacity="0.2"/>
</g>
<g filter="url(#filter2_f_1_12)">
<path d="M395 208.5C395 261.519 357.019 323.5 304 323.5C250.981 323.5 153.5 261.519 153.5 208.5C153.5 155.481 215.981 75 269 75C322.019 75 395 155.481 395 208.5Z" fill="url(#paint4_linear_1_12)" fill-opacity="0.2"/>
</g>
<g filter="url(#filter3_f_1_12)">
<path d="M395 208.5C395 261.519 357.019 323.5 304 323.5C250.981 323.5 153.5 261.519 153.5 208.5C153.5 155.481 215.981 75 269 75C322.019 75 395 155.481 395 208.5Z" fill="url(#paint5_linear_1_12)" fill-opacity="0.2"/>
</g>
<defs>
<filter id="filter0_f_1_12" x="0" y="65.9082" width="437.5" height="326.592" filterUnits="userSpaceOnUse" color-interpolation-filters="sRGB">
<feFlood flood-opacity="0" result="BackgroundImageFix"/>
<feBlend mode="normal" in="SourceGraphic" in2="BackgroundImageFix" result="shape"/>
<feGaussianBlur stdDeviation="37.5" result="effect1_foregroundBlur_1_12"/>
</filter>
<filter id="filter1_f_1_12" x="0" y="65.9082" width="437.5" height="326.592" filterUnits="userSpaceOnUse" color-interpolation-filters="sRGB">
<feFlood flood-opacity="0" result="BackgroundImageFix"/>
<feBlend mode="normal" in="SourceGraphic" in2="BackgroundImageFix" result="shape"/>
<feGaussianBlur stdDeviation="37.5" result="effect1_foregroundBlur_1_12"/>
</filter>
<filter id="filter2_f_1_12" x="78.5" y="0" width="391.5" height="398.5" filterUnits="userSpaceOnUse" color-interpolation-filters="sRGB">
<feFlood flood-opacity="0" result="BackgroundImageFix"/>
<feBlend mode="normal" in="SourceGraphic" in2="BackgroundImageFix" result="shape"/>
<feGaussianBlur stdDeviation="37.5" result="effect1_foregroundBlur_1_12"/>
</filter>
<filter id="filter3_f_1_12" x="78.5" y="0" width="391.5" height="398.5" filterUnits="userSpaceOnUse" color-interpolation-filters="sRGB">
<feFlood flood-opacity="0" result="BackgroundImageFix"/>
<feBlend mode="normal" in="SourceGraphic" in2="BackgroundImageFix" result="shape"/>
<feGaussianBlur stdDeviation="37.5" result="effect1_foregroundBlur_1_12"/>
</filter>
<linearGradient id="paint0_linear_1_12" x1="122.106" y1="149.904" x2="247.731" y2="317.5" gradientUnits="userSpaceOnUse">
<stop stop-color="#FF2E00"/>
<stop offset="1" stop-color="#1400FF" stop-opacity="0.2"/>
</linearGradient>
<linearGradient id="paint1_linear_1_12" x1="193.5" y1="137.5" x2="193.5" y2="317.5" gradientUnits="userSpaceOnUse">
<stop stop-color="#00FFA3" stop-opacity="0.58"/>
<stop offset="1" stop-color="#3300FF" stop-opacity="0.2"/>
</linearGradient>
<linearGradient id="paint2_linear_1_12" x1="122.106" y1="149.904" x2="247.731" y2="317.5" gradientUnits="userSpaceOnUse">
<stop stop-color="#FF2E00"/>
<stop offset="1" stop-color="#1400FF" stop-opacity="0.2"/>
</linearGradient>
<linearGradient id="paint3_linear_1_12" x1="193.5" y1="137.5" x2="193.5" y2="317.5" gradientUnits="userSpaceOnUse">
<stop stop-color="#00FFA3" stop-opacity="0.58"/>
<stop offset="1" stop-color="#3300FF" stop-opacity="0.2"/>
</linearGradient>
<linearGradient id="paint4_linear_1_12" x1="249.5" y1="112.5" x2="249.5" y2="304.5" gradientUnits="userSpaceOnUse">
<stop stop-color="#00FFA3" stop-opacity="0.48"/>
<stop offset="1" stop-color="#3300FF" stop-opacity="0.2"/>
</linearGradient>
<linearGradient id="paint5_linear_1_12" x1="249.5" y1="112.5" x2="249.5" y2="304.5" gradientUnits="userSpaceOnUse">
<stop stop-color="#00FFA3" stop-opacity="0.48"/>
<stop offset="1" stop-color="#3300FF" stop-opacity="0.2"/>
</linearGradient>
</defs>
</svg>
