<svg width="24" height="20" viewBox="0 0 24 20" fill="none" xmlns="http://www.w3.org/2000/svg">
<path d="M12 11.6947C11.3554 11.6879 10.7684 11.5182 10.2392 11.1858C9.71671 10.8533 9.29941 10.402 8.98728 9.83206C8.68193 9.2553 8.52587 8.6039 8.51908 7.87786C8.51908 7.19932 8.67176 6.57846 8.9771 6.01527C9.28923 5.44529 9.70992 4.99067 10.2392 4.6514C10.7684 4.31213 11.3554 4.14249 12 4.14249C12.6514 4.14249 13.2383 4.31213 13.7608 4.6514C14.2901 4.99067 14.7074 5.44529 15.0127 6.01527C15.3249 6.57846 15.4809 7.19932 15.4809 7.87786C15.4809 8.6039 15.3249 9.25869 15.0127 9.84224C14.7074 10.419 14.2901 10.8736 13.7608 11.2061C13.2383 11.5386 12.6514 11.7014 12 11.6947ZM4.99746 18.3308C5.14673 17.6183 5.42833 16.9601 5.84224 16.3562C6.25615 15.7523 6.77184 15.2299 7.38931 14.7888C8.01357 14.3478 8.71586 14.0051 9.49618 13.7608C10.2833 13.5165 11.1179 13.3944 12 13.3944C12.8821 13.3944 13.7133 13.5165 14.4936 13.7608C15.2807 14.0051 15.983 14.3478 16.6005 14.7888C17.2248 15.2299 17.7439 15.7523 18.1578 16.3562C18.5717 16.9601 18.8533 17.6183 19.0025 18.3308H4.99746ZM3.19593 19.369C2.13062 19.369 1.32994 19.1043 0.793893 18.5751C0.264631 18.0526 0 17.2655 0 16.2137V3.78626C0 2.73452 0.264631 1.94741 0.793893 1.42494C1.32994 0.895674 2.13062 0.631042 3.19593 0.631042H20.8041C21.8762 0.631042 22.6768 0.895674 23.2061 1.42494C23.7354 1.94741 24 2.73452 24 3.78626V16.2137C24 17.2655 23.7354 18.0526 23.2061 18.5751C22.6768 19.1043 21.8762 19.369 20.8041 19.369H3.19593ZM3.21628 17.7303H20.7837C21.2858 17.7303 21.6726 17.598 21.944 17.3333C22.2222 17.0619 22.3613 16.6616 22.3613 16.1323V3.86768C22.3613 3.33842 22.2222 2.94148 21.944 2.67684C21.6726 2.40543 21.2858 2.26972 20.7837 2.26972H3.21628C2.70738 2.26972 2.31722 2.40543 2.0458 2.67684C1.77439 2.94148 1.63868 3.33842 1.63868 3.86768V16.1323C1.63868 16.6616 1.77439 17.0619 2.0458 17.3333C2.31722 17.598 2.70738 17.7303 3.21628 17.7303Z" fill="rgb(0,0,0)"/>
</svg>
