<svg width="24" height="24" viewBox="0 0 24 24" fill="none" xmlns="http://www.w3.org/2000/svg">
<path d="M12 24C10.3608 24 8.81569 23.6863 7.36471 23.0588C5.92157 22.4314 4.64706 21.5647 3.54118 20.4588C2.43529 19.3529 1.56863 18.0784 0.941176 16.6353C0.313725 15.1843 0 13.6392 0 12C0 10.3608 0.313725 8.81961 0.941176 7.37647C1.56863 5.92549 2.43137 4.64706 3.52941 3.54118C4.63529 2.43529 5.9098 1.56863 7.35294 0.941176C8.80392 0.313725 10.349 0 11.9882 0C13.6275 0 15.1725 0.313725 16.6235 0.941176C18.0745 1.56863 19.3529 2.43529 20.4588 3.54118C21.5647 4.64706 22.4314 5.92549 23.0588 7.37647C23.6863 8.81961 24 10.3608 24 12C24 13.6392 23.6863 15.1843 23.0588 16.6353C22.4314 18.0784 21.5647 19.3529 20.4588 20.4588C19.3529 21.5647 18.0745 22.4314 16.6235 23.0588C15.1804 23.6863 13.6392 24 12 24ZM12 22C13.3882 22 14.6863 21.7412 15.8941 21.2235C17.1098 20.7059 18.1726 19.9922 19.0824 19.0824C20 18.1647 20.7137 17.102 21.2235 15.8941C21.7412 14.6863 22 13.3882 22 12C22 10.6118 21.7412 9.31373 21.2235 8.10588C20.7059 6.89804 19.9882 5.83529 19.0706 4.91765C18.1529 4 17.0902 3.28627 15.8824 2.77647C14.6745 2.25882 13.3765 2 11.9882 2C10.6 2 9.30196 2.25882 8.09412 2.77647C6.88627 3.28627 5.82745 4 4.91765 4.91765C4.00784 5.83529 3.29412 6.89804 2.77647 8.10588C2.26667 9.31373 2.01176 10.6118 2.01176 12C2.01176 13.3882 2.26667 14.6863 2.77647 15.8941C3.29412 17.102 4.00784 18.1647 4.91765 19.0824C5.83529 19.9922 6.89804 20.7059 8.10588 21.2235C9.31373 21.7412 10.6118 22 12 22ZM7.51765 12.9882C7.21961 12.9882 6.97647 12.898 6.78824 12.7176C6.6 12.5373 6.50588 12.3059 6.50588 12.0235C6.50588 11.7255 6.59608 11.4863 6.77647 11.3059C6.96471 11.1176 7.21176 11.0235 7.51765 11.0235H16.4824C16.7804 11.0235 17.0196 11.1176 17.2 11.3059C17.3882 11.4863 17.4824 11.7255 17.4824 12.0235C17.4824 12.3059 17.3882 12.5373 17.2 12.7176C17.0118 12.898 16.7725 12.9882 16.4824 12.9882H7.51765ZM11.9765 17.4941C11.6863 17.4941 11.451 17.4039 11.2706 17.2235C11.098 17.0353 11.0118 16.7922 11.0118 16.4941V7.52941C11.0118 7.23137 11.098 6.98824 11.2706 6.8C11.451 6.61176 11.6863 6.51765 11.9765 6.51765C12.2745 6.51765 12.5137 6.61176 12.6941 6.8C12.8824 6.98824 12.9765 7.23137 12.9765 7.52941V16.4941C12.9765 16.7922 12.8824 17.0353 12.6941 17.2235C12.5137 17.4039 12.2745 17.4941 11.9765 17.4941Z" fill="white"/>
</svg>
