<svg width="51" height="41" viewBox="0 0 51 41" fill="none" xmlns="http://www.w3.org/2000/svg">
<g filter="url(#filter0_d_14_470)">
<path d="M11.1055 26.5625H39.4941L38.9961 28.5547C38.6751 29.8607 38.1439 30.8402 37.4023 31.4932C36.6608 32.1462 35.6038 32.4727 34.2314 32.4727H16.3516C14.9792 32.4727 13.9222 32.1406 13.1807 31.4766C12.4502 30.8236 11.9245 29.8496 11.6035 28.5547L11.1055 26.5625ZM10.5576 24.2881L7.35352 11.2559L8.94727 10.8408L16.4512 16.3193C16.7279 16.5186 16.9548 16.596 17.1318 16.5518C17.32 16.4964 17.486 16.3636 17.6299 16.1533L24.9014 5.17969L25.6982 5.21289L32.9033 16.1035C33.0583 16.3359 33.2354 16.4798 33.4346 16.5352C33.6449 16.5794 33.8883 16.502 34.165 16.3027L41.8184 10.7246L43.1797 11.5049L40.0586 24.2881H10.5576ZM7.96777 14.8252C7.24837 14.8252 6.58431 14.6481 5.97559 14.2939C5.37793 13.9287 4.89648 13.4473 4.53125 12.8496C4.17708 12.252 4 11.5824 4 10.8408C4 10.1214 4.17708 9.46289 4.53125 8.86523C4.88542 8.26758 5.36133 7.79167 5.95898 7.4375C6.56771 7.07227 7.2373 6.88965 7.96777 6.88965C8.69824 6.88965 9.3623 7.07227 9.95996 7.4375C10.5576 7.79167 11.0335 8.26758 11.3877 8.86523C11.7419 9.46289 11.9189 10.1214 11.9189 10.8408C11.9189 11.5824 11.7419 12.252 11.3877 12.8496C11.0335 13.4473 10.5576 13.9287 9.95996 14.2939C9.3623 14.6481 8.69824 14.8252 7.96777 14.8252ZM25.2998 7.91895C24.5693 7.91895 23.8997 7.74186 23.291 7.3877C22.6934 7.03353 22.2174 6.55762 21.8633 5.95996C21.5091 5.35124 21.332 4.68164 21.332 3.95117C21.332 3.2207 21.5091 2.55664 21.8633 1.95898C22.2174 1.36133 22.6934 0.885417 23.291 0.53125C23.8997 0.177083 24.5693 0 25.2998 0C26.0192 0 26.6777 0.182617 27.2754 0.547852C27.8841 0.902018 28.3656 1.37793 28.7197 1.97559C29.0739 2.57324 29.251 3.23177 29.251 3.95117C29.251 4.68164 29.0739 5.35124 28.7197 5.95996C28.3656 6.55762 27.8841 7.03353 27.2754 7.3877C26.6777 7.74186 26.0192 7.91895 25.2998 7.91895ZM42.6152 14.8252C41.8848 14.8252 41.2207 14.6481 40.623 14.2939C40.0254 13.9287 39.5495 13.4473 39.1953 12.8496C38.8411 12.252 38.6641 11.5824 38.6641 10.8408C38.6641 10.1214 38.8411 9.46289 39.1953 8.86523C39.5495 8.26758 40.0254 7.79167 40.623 7.4375C41.2207 7.07227 41.8848 6.88965 42.6152 6.88965C43.3457 6.88965 44.0098 7.07227 44.6074 7.4375C45.2161 7.79167 45.6976 8.26758 46.0518 8.86523C46.4059 9.46289 46.583 10.1214 46.583 10.8408C46.583 11.5824 46.4004 12.252 46.0352 12.8496C45.681 13.4473 45.1995 13.9287 44.5908 14.2939C43.9932 14.6481 43.3346 14.8252 42.6152 14.8252Z" fill="black"/>
</g>
<defs>
<filter id="filter0_d_14_470" x="0" y="0" width="50.583" height="40.4727" filterUnits="userSpaceOnUse" color-interpolation-filters="sRGB">
<feFlood flood-opacity="0" result="BackgroundImageFix"/>
<feColorMatrix in="SourceAlpha" type="matrix" values="0 0 0 0 0 0 0 0 0 0 0 0 0 0 0 0 0 0 127 0" result="hardAlpha"/>
<feOffset dy="4"/>
<feGaussianBlur stdDeviation="2"/>
<feComposite in2="hardAlpha" operator="out"/>
<feColorMatrix type="matrix" values="0 0 0 0 0 0 0 0 0 0 0 0 0 0 0 0 0 0 0.25 0"/>
<feBlend mode="normal" in2="BackgroundImageFix" result="effect1_dropShadow_14_470"/>
<feBlend mode="normal" in="SourceGraphic" in2="effect1_dropShadow_14_470" result="shape"/>
</filter>
</defs>
</svg>
