<svg width="16" height="18" viewBox="0 0 16 18" fill="none" xmlns="http://www.w3.org/2000/svg">
<path d="M14.4181 14.7059H4.37314C3.94076 14.7059 3.56715 14.5547 3.25229 14.2522C2.93741 13.9498 2.77997 13.591 2.77997 13.1757V1.51929C2.77997 1.10402 2.93741 0.74698 3.25229 0.448176C3.56715 0.149372 3.94076 -3.05176e-05 4.37314 -3.05176e-05H10.5408C10.7532 -3.05176e-05 10.9585 0.0409672 11.1568 0.122962C11.355 0.204971 11.53 0.315184 11.6816 0.453603L15.5277 4.14757C15.6718 4.29323 15.7866 4.46125 15.8719 4.65165C15.9573 4.84205 16 5.03926 16 5.24327V13.1757C16 13.591 15.8426 13.9498 15.5277 14.2522C15.2128 14.5547 14.843 14.7059 14.4181 14.7059ZM14.4181 4.99144L10.7231 1.51929V3.84654C10.7231 4.16898 10.8379 4.4404 11.0673 4.66081C11.2969 4.88123 11.5795 4.99144 11.9152 4.99144H14.4181ZM1.58186 17.3759C1.14951 17.3759 0.777772 17.2265 0.466663 16.9277C0.155554 16.6289 0 16.2719 0 15.8566V4.84221C0 4.6254 0.0753877 4.44459 0.226163 4.29977C0.376952 4.15496 0.565208 4.08256 0.790931 4.08256C1.01667 4.08256 1.20492 4.15496 1.3557 4.29977C1.50648 4.44459 1.58186 4.6254 1.58186 4.84221V15.8566H10.8142C11.04 15.8566 11.2282 15.929 11.379 16.0738C11.5298 16.2186 11.6052 16.3994 11.6052 16.6162C11.6052 16.8331 11.5298 17.0139 11.379 17.1586C11.2282 17.3034 11.04 17.3759 10.8142 17.3759H1.58186Z" fill="rgb(0,0,0)"/>
</svg>
