<svg width="24" height="24" viewBox="0 0 24 24" fill="none" xmlns="http://www.w3.org/2000/svg">
<path d="M6.69691 23.265C6.31942 23.265 6.02541 23.1379 5.81488 22.8839C5.61162 22.637 5.50998 22.3031 5.50998 21.882V19.0508H4.9873C3.90563 19.0508 2.99456 18.8584 2.25408 18.4737C1.51361 18.0817 0.950998 17.5154 0.566243 16.775C0.188748 16.0345 0 15.1307 0 14.0635V5.72233C0 4.65518 0.188748 3.75137 0.566243 3.01089C0.950998 2.27042 1.51361 1.70781 2.25408 1.32305C2.99456 0.931038 3.90563 0.735031 4.9873 0.735031H19.0127C20.0944 0.735031 21.0054 0.931038 21.7459 1.32305C22.4864 1.70781 23.0454 2.27042 23.4229 3.01089C23.8076 3.75137 24 4.65518 24 5.72233V14.0635C24 15.1307 23.8076 16.0345 23.4229 16.775C23.0454 17.5154 22.4864 18.0817 21.7459 18.4737C21.0054 18.8584 20.0944 19.0508 19.0127 19.0508H12.0218L8.26497 22.3938C7.93829 22.6842 7.66243 22.902 7.43739 23.0472C7.21234 23.1924 6.96552 23.265 6.69691 23.265ZM7.14338 21.2722L10.6279 17.8094C10.8312 17.5989 11.0272 17.461 11.216 17.3956C11.4047 17.3303 11.6515 17.2976 11.9564 17.2976H19.0127C20.1089 17.2976 20.922 17.0254 21.4519 16.4809C21.9819 15.9292 22.2468 15.1198 22.2468 14.0526V5.72233C22.2468 4.66244 21.9819 3.86026 21.4519 3.31579C20.922 2.76407 20.1089 2.48821 19.0127 2.48821H4.9873C3.88385 2.48821 3.06715 2.76407 2.53721 3.31579C2.01452 3.86026 1.75318 4.66244 1.75318 5.72233V14.0526C1.75318 15.1198 2.01452 15.9292 2.53721 16.4809C3.06715 17.0254 3.88385 17.2976 4.9873 17.2976H6.32668C6.62432 17.2976 6.83485 17.3594 6.95826 17.4828C7.08167 17.6062 7.14338 17.8167 7.14338 18.1143V21.2722ZM14.7332 13.9764C13.9492 13.9764 13.5572 13.5844 13.5572 12.8004V7.02904C13.5572 6.24501 13.9492 5.853 14.7332 5.853H18.1416C18.9256 5.853 19.3176 6.24501 19.3176 7.02904V12.8004C19.3176 13.5844 18.9256 13.9764 18.1416 13.9764H14.7332ZM7.05626 14.6189C6.26497 14.6189 5.86933 14.2305 5.86933 13.4537V11.9837C5.86933 11.1996 6.26497 10.8076 7.05626 10.8076H11.1615C11.9456 10.8076 12.3376 11.1996 12.3376 11.9837V13.4537C12.3376 14.2305 11.9456 14.6189 11.1615 14.6189H7.05626ZM5.72777 9.62069C4.93648 9.62069 4.54083 9.22868 4.54083 8.44465V6.27768C4.54083 5.50817 4.93648 5.12342 5.72777 5.12342H10.5082C11.2995 5.12342 11.6951 5.50817 11.6951 6.27768V8.44465C11.6951 9.22868 11.2995 9.62069 10.5082 9.62069H5.72777Z" fill="rgb(0,0,0)"/>
</svg>
