<svg width="19" height="19" viewBox="0 0 19 19" fill="none" xmlns="http://www.w3.org/2000/svg">
<path d="M13.4026 13.5278C13.2112 13.3374 13.1155 13.1107 13.1155 12.8475C13.1155 12.5843 13.2112 12.3604 13.4026 12.1759L15.1249 10.463H7.79662C7.52627 10.463 7.29845 10.3704 7.11315 10.1853C6.92785 10.0002 6.8352 9.77266 6.8352 9.50259C6.8352 9.23251 6.92785 9.00633 7.11315 8.82405C7.29845 8.64178 7.52627 8.55064 7.79662 8.55064H15.0763L13.316 6.79996C13.1408 6.6336 13.0555 6.421 13.0601 6.16215C13.0647 5.90332 13.1644 5.67831 13.3592 5.48714C13.5416 5.29596 13.7696 5.20265 14.0433 5.20721C14.3169 5.21174 14.5494 5.30917 14.7407 5.4995L18.12 8.86026C18.2183 8.96045 18.2908 9.06789 18.3373 9.18258C18.3838 9.2973 18.407 9.415 18.407 9.53569C18.407 9.65639 18.3838 9.77266 18.3373 9.88451C18.2908 9.99636 18.2183 10.1021 18.12 10.2016L14.7513 13.5519C14.5761 13.7261 14.3577 13.8133 14.0959 13.8133C13.8342 13.8133 13.6031 13.7181 13.4026 13.5278ZM2.26666 18.5385C1.73686 18.5385 1.28165 18.3505 0.901022 17.9746C0.520393 17.5988 0.330078 17.1493 0.330078 16.6261V2.38752C0.330078 1.86062 0.520393 1.40789 0.901022 1.02934C1.28165 0.650801 1.73686 0.461533 2.26666 0.461533H8.46463C8.73498 0.461533 8.96281 0.55675 9.14811 0.747185C9.3334 0.937636 9.42605 1.1675 9.42605 1.43678C9.42605 1.70605 9.3334 1.93183 9.14811 2.11411C8.96281 2.29638 8.73498 2.38752 8.46463 2.38752H2.26666V16.6261H8.46463C8.73498 16.6261 8.96281 16.7187 9.14811 16.9037C9.3334 17.0889 9.42605 17.3164 9.42605 17.5865C9.42605 17.8566 9.3334 18.0828 9.14811 18.265C8.96281 18.4473 8.73498 18.5385 8.46463 18.5385H2.26666Z" fill="black"/>
</svg>
