<svg width="18" height="19" viewBox="0 0 18 19" fill="none" xmlns="http://www.w3.org/2000/svg">
<path d="M1.38677 15.6716C0.952063 15.6716 0.612259 15.5706 0.367356 15.3685C0.122452 15.1603 0 14.8909 0 14.5603C0 14.2542 0.0887776 13.9572 0.266333 13.6695C0.443888 13.3817 0.664301 13.1001 0.927573 12.8246C1.19697 12.5429 1.4633 12.2674 1.72657 11.998C1.92862 11.7837 2.08474 11.5113 2.19495 11.1807C2.31128 10.8439 2.397 10.4857 2.4521 10.1061C2.5072 9.72042 2.547 9.35306 2.57149 9.00407C2.58986 7.79792 2.71537 6.73565 2.94803 5.81726C3.18069 4.89887 3.54498 4.13355 4.04091 3.52129C4.54296 2.90903 5.20114 2.45596 6.01545 2.16208C6.16851 1.56206 6.4777 1.05389 6.94302 0.637551C7.41446 0.221214 7.98692 0.0130463 8.66041 0.0130463C9.34002 0.0130463 9.91248 0.221214 10.3778 0.637551C10.8492 1.05389 11.1615 1.56206 11.3146 2.16208C12.1289 2.45596 12.784 2.90903 13.2799 3.52129C13.7758 4.13355 14.1401 4.89887 14.3728 5.81726C14.6116 6.73565 14.7401 7.79792 14.7585 9.00407C14.783 9.35306 14.8228 9.72042 14.8779 10.1061C14.933 10.4857 15.0157 10.8439 15.1259 11.1807C15.2422 11.5113 15.4014 11.7837 15.6034 11.998C15.8667 12.2674 16.13 12.5429 16.3932 12.8246C16.6626 13.1001 16.8861 13.3817 17.0637 13.6695C17.2412 13.9572 17.33 14.2542 17.33 14.5603C17.33 14.8909 17.2075 15.1603 16.9626 15.3685C16.7177 15.5706 16.3779 15.6716 15.9432 15.6716H1.38677ZM1.78167 14.2848H15.5391V14.1746C15.484 14.0828 15.3922 13.9664 15.2636 13.8256C15.1412 13.6848 14.9973 13.5287 14.832 13.3572C14.6728 13.1797 14.5105 13.0021 14.3452 12.8246C14.1799 12.6409 14.036 12.4297 13.9136 12.1909C13.7911 11.946 13.6871 11.6735 13.6013 11.3735C13.5217 11.0674 13.4544 10.7276 13.3993 10.3541C13.3503 9.9745 13.3166 9.56123 13.2983 9.11428C13.2738 7.77955 13.133 6.72035 12.8758 5.93665C12.6248 5.15296 12.288 4.57132 11.8656 4.19172C11.4492 3.80599 10.9778 3.54272 10.4513 3.4019C10.3411 3.37129 10.2523 3.32537 10.1849 3.26414C10.1237 3.20292 10.0931 3.11414 10.0931 2.99781C10.0747 2.51412 9.93697 2.12228 9.67982 1.82227C9.42879 1.51614 9.08899 1.36308 8.66041 1.36308C8.23795 1.36308 7.89814 1.51614 7.641 1.82227C7.38997 2.12228 7.25527 2.51412 7.23691 2.99781C7.23078 3.11414 7.19711 3.20292 7.13588 3.26414C7.07466 3.32537 6.98588 3.37129 6.86955 3.4019C6.34301 3.54272 5.86851 3.80599 5.44605 4.19172C5.02971 4.57132 4.69603 5.15296 4.445 5.93665C4.19398 6.72035 4.05622 7.77955 4.03173 9.11428C4.00724 9.56123 3.9705 9.9745 3.92152 10.3541C3.87254 10.7276 3.80519 11.0674 3.71948 11.3735C3.63376 11.6735 3.52967 11.946 3.40722 12.1909C3.28477 12.4297 3.14089 12.6409 2.97558 12.8246C2.81639 13.0021 2.65414 13.1797 2.48883 13.3572C2.32965 13.5287 2.18577 13.6848 2.05719 13.8256C1.92862 13.9664 1.83678 14.0828 1.78167 14.1746V14.2848ZM8.66041 18.987C8.01754 18.987 7.44507 18.8308 6.94302 18.5186C6.44097 18.2125 6.03994 17.8084 5.73993 17.3063C5.44605 16.8043 5.28686 16.2593 5.26237 15.6716H6.69506C6.72567 16.29 6.92159 16.7828 7.28282 17.1502C7.65018 17.5175 8.10937 17.7012 8.66041 17.7012C9.21756 17.7012 9.67676 17.5175 10.038 17.1502C10.3992 16.7828 10.5982 16.29 10.6349 15.6716H12.0676C12.0431 16.2593 11.8809 16.8043 11.5809 17.3063C11.287 17.8145 10.889 18.2216 10.387 18.5278C9.88493 18.8339 9.3094 18.987 8.66041 18.987Z" fill="black"/>
</svg>
