<svg width="68" height="68" viewBox="0 0 68 68" fill="none" xmlns="http://www.w3.org/2000/svg">
<path d="M32.8674 8.47852L33.5449 7.74297C33.1387 7.36881 32.5061 7.39481 32.1319 7.80104L32.8674 8.47852ZM40.1453 47.8109L39.4097 47.1334C39.2301 47.3285 39.1352 47.5869 39.1461 47.8519L40.1453 47.8109ZM40.3775 53.4629L40.4186 54.4621C40.9704 54.4394 41.3994 53.9737 41.3767 53.4219L40.3775 53.4629ZM29.0734 53.9274L28.0742 53.9685C28.0969 54.5203 28.5626 54.9493 29.1144 54.9266L29.0734 53.9274ZM28.8411 48.2754L29.8403 48.2343C29.8294 47.9693 29.7137 47.7195 29.5186 47.5398L28.8411 48.2754ZM51.1979 24.0025L33.5449 7.74297L32.19 9.21406L49.843 25.4736L51.1979 24.0025ZM51.7205 36.7197C55.0879 33.0636 54.854 27.3699 51.1979 24.0025L49.843 25.4736C52.6866 28.0927 52.8685 32.5211 50.2494 35.3647L51.7205 36.7197ZM40.8808 48.4883L51.7205 36.7197L50.2494 35.3647L39.4097 47.1334L40.8808 48.4883ZM39.1461 47.8519L39.3784 53.504L41.3767 53.4219L41.1444 47.7698L39.1461 47.8519ZM40.3365 52.4638L29.0323 52.9283L29.1144 54.9266L40.4186 54.4621L40.3365 52.4638ZM30.0725 53.8864L29.8403 48.2343L27.842 48.3164L28.0742 53.9685L30.0725 53.8864ZM16.395 38.1712L28.1636 49.0109L29.5186 47.5398L17.7499 36.7002L16.395 38.1712ZM15.8724 25.454C12.5049 29.1101 12.7389 34.8038 16.395 38.1712L17.7499 36.7002C14.9063 34.081 14.7243 29.6526 17.3435 26.809L15.8724 25.454ZM32.1319 7.80104L15.8724 25.454L17.3435 26.809L33.603 9.15599L32.1319 7.80104Z" fill="#292929"/>
<ellipse cx="33.7963" cy="31.0862" rx="4" ry="4" transform="rotate(-137.353 33.7963 31.0862)" fill="#292929"/>
<path d="M32.8674 8.47852L33.7964 31.0869" stroke="#292929" stroke-width="2" stroke-linecap="round" stroke-linejoin="round"/>
</svg>
