<svg width="18" height="20" viewBox="0 0 18 20" fill="none" xmlns="http://www.w3.org/2000/svg">
<path d="M4.48699 19.7966C3.85353 19.7966 3.34031 19.6089 2.94734 19.2335C2.56022 18.864 2.352 18.3625 2.32268 17.729L1.71561 4.92794H0.659851C0.483891 4.92794 0.328459 4.86342 0.193556 4.73438C0.0645188 4.59948 0 4.44111 0 4.25929C0 4.08333 0.0645188 3.93083 0.193556 3.80179C0.328459 3.66689 0.483891 3.59943 0.659851 3.59943H16.3819C16.5637 3.59943 16.7192 3.66395 16.8482 3.79299C16.9772 3.92203 17.0418 4.07746 17.0418 4.25929C17.0418 4.44111 16.9772 4.59948 16.8482 4.73438C16.7192 4.86342 16.5637 4.92794 16.3819 4.92794H15.3261L14.7191 17.7203C14.6898 18.3537 14.4786 18.8581 14.0856 19.2335C13.6985 19.6089 13.1882 19.7966 12.5548 19.7966H4.48699ZM4.61016 18.4681H12.414C12.6721 18.4681 12.8862 18.383 13.0563 18.2129C13.2322 18.0487 13.3261 17.8346 13.3378 17.5707L13.9097 4.92794H3.0881L3.70397 17.5707C3.7157 17.8288 3.80661 18.0428 3.9767 18.2129C4.15267 18.383 4.36382 18.4681 4.61016 18.4681ZM5.91227 16.9636C5.7539 16.9636 5.62193 16.9167 5.51636 16.8229C5.41665 16.729 5.36679 16.6029 5.36679 16.4445L5.09405 7.03946C5.09405 6.88696 5.14391 6.76379 5.24362 6.66994C5.34333 6.57023 5.4753 6.52038 5.63953 6.52038C5.79789 6.52038 5.92693 6.5673 6.02664 6.66114C6.13222 6.75499 6.18794 6.87816 6.19381 7.03066L6.45775 16.4445C6.46361 16.597 6.41669 16.7231 6.31698 16.8229C6.21727 16.9167 6.08236 16.9636 5.91227 16.9636ZM8.52528 16.9636C8.35519 16.9636 8.21735 16.9167 8.11177 16.8229C8.0062 16.7231 7.95341 16.597 7.95341 16.4445V7.03946C7.95341 6.88696 8.0062 6.76379 8.11177 6.66994C8.21735 6.57023 8.35519 6.52038 8.52528 6.52038C8.68951 6.52038 8.82441 6.57023 8.92999 6.66994C9.03557 6.76379 9.08835 6.88696 9.08835 7.03946V16.4445C9.08835 16.597 9.03557 16.7231 8.92999 16.8229C8.82441 16.9167 8.68951 16.9636 8.52528 16.9636ZM11.1295 16.9636C10.9594 16.9636 10.8245 16.9167 10.7248 16.8229C10.6251 16.7231 10.5782 16.597 10.584 16.4445L10.848 7.03946C10.8538 6.88109 10.9066 6.75499 11.0063 6.66114C11.1119 6.5673 11.2409 6.52038 11.3934 6.52038C11.5635 6.52038 11.6984 6.57023 11.7981 6.66994C11.8979 6.76379 11.9477 6.88696 11.9477 7.03946L11.675 16.4445C11.675 16.6029 11.6222 16.729 11.5166 16.8229C11.4169 16.9167 11.2879 16.9636 11.1295 16.9636ZM4.66295 4.22409V2.25334C4.66295 1.61988 4.85651 1.12133 5.24362 0.757675C5.63073 0.388158 6.16448 0.2034 6.84486 0.2034H10.1793C10.8597 0.2034 11.3934 0.388158 11.7805 0.757675C12.1677 1.12133 12.3612 1.61988 12.3612 2.25334V4.22409H10.9623V2.34132C10.9623 2.09497 10.8832 1.89555 10.7248 1.74305C10.5664 1.59055 10.3553 1.5143 10.0913 1.5143H6.93284C6.6689 1.5143 6.45775 1.59055 6.29938 1.74305C6.14102 1.89555 6.06184 2.09497 6.06184 2.34132V4.22409H4.66295Z" fill="rgb(0,0,0)"/>
</svg>
