<svg fill="none" height="30" width="167" xmlns="http://www.w3.org/2000/svg">
    <path
        d="M40.499 8.65h3.816l3.908 10.024L52.13 8.65h3.816l-6.442 15.357h-2.564L40.499 8.65zM73.936 24.25c-2.26 0-4-.71-5.22-2.132-1.202-1.443-1.802-3.372-1.802-5.79 0-2.417.6-4.337 1.801-5.759 1.221-1.442 2.962-2.163 5.22-2.163a5.04 5.04 0 012.168.487c.692.325 1.211.711 1.557 1.158V2.434h3.786v21.573H77.66v-1.585c-.244.447-.712.864-1.404 1.25-.672.386-1.445.578-2.32.578zm.519-3.23c1.038 0 1.882-.406 2.534-1.218.671-.833 1.007-1.99 1.007-3.474 0-1.483-.336-2.63-1.007-3.443-.652-.833-1.496-1.25-2.534-1.25-1.038 0-1.893.417-2.565 1.25-.671.813-1.007 1.96-1.007 3.443 0 1.463.336 2.61 1.007 3.443.672.833 1.527 1.25 2.565 1.25zM91.707 24.25c-1.669 0-3.063-.385-4.182-1.157-1.1-.793-1.913-1.788-2.443-2.986a9.716 9.716 0 01-.763-3.779c0-1.3.255-2.55.763-3.748a6.987 6.987 0 012.443-2.986c1.12-.792 2.513-1.188 4.182-1.188 1.608 0 2.951.386 4.03 1.158 1.079.751 1.873 1.706 2.381 2.864a8.778 8.778 0 01.764 3.565v1.554H88.044c.04.59.213 1.148.519 1.676.325.528.773.965 1.343 1.31.59.325 1.262.488 2.015.488 1.547 0 2.798-.732 3.755-2.194l3.022 1.584c-1.465 2.56-3.795 3.84-6.99 3.84zm3.603-9.567c-.204-.935-.6-1.696-1.19-2.285-.591-.59-1.395-.884-2.413-.884-.977 0-1.79.315-2.442.944a4.05 4.05 0 00-1.19 2.225h7.235zM108.99 24.25c-1.526 0-2.859-.355-3.999-1.066a7.35 7.35 0 01-2.656-2.864c-.611-1.219-.916-2.55-.916-3.992 0-1.442.305-2.762.916-3.961a7.296 7.296 0 012.656-2.895c1.14-.71 2.473-1.066 3.999-1.066 1.527 0 2.86.355 4 1.066a7.082 7.082 0 012.625 2.895c.631 1.198.947 2.519.947 3.961 0 1.442-.316 2.773-.947 3.992a7.13 7.13 0 01-2.625 2.864c-1.14.711-2.473 1.066-4 1.066zm0-3.23c1.242 0 2.199-.456 2.87-1.37.692-.915 1.038-2.022 1.038-3.322 0-1.3-.346-2.407-1.038-3.321-.671-.914-1.628-1.371-2.87-1.371-1.241 0-2.208.457-2.9 1.37-.672.915-1.007 2.022-1.007 3.322 0 1.3.335 2.407 1.007 3.322.692.914 1.659 1.37 2.9 1.37zM124.075 24.25c-1.363 0-2.483-.406-3.358-1.218-.875-.813-1.313-1.96-1.313-3.444 0-.995.275-1.868.825-2.62.549-.772 1.323-1.361 2.32-1.767.997-.427 2.137-.64 3.419-.64h2.565v-.67c0-.813-.255-1.422-.764-1.829-.508-.406-1.149-.61-1.923-.61-.59 0-1.129.174-1.618.519-.468.325-.814.863-1.038 1.615l-3.205-.914c.366-1.28 1.078-2.306 2.137-3.078 1.078-.792 2.32-1.188 3.724-1.188 1.995 0 3.542.498 4.641 1.493 1.099.975 1.648 2.62 1.648 4.936v9.172h-2.931l-.397-1.95c-1.2 1.462-2.778 2.194-4.732 2.194zm.519-3.077c.652 0 1.272-.142 1.863-.427a3.685 3.685 0 001.465-1.188c.387-.528.58-1.137.58-1.828v-.335h-2.778c-.916 0-1.628.183-2.137.548-.489.345-.733.884-.733 1.615 0 .427.153.802.458 1.128.305.325.733.487 1.282.487zM142.122 24.25c-3.46 0-5.719-1.533-6.778-4.6l3.42-1.189c.285.894.702 1.544 1.251 1.95.55.406 1.293.61 2.229.61.733 0 1.333-.132 1.801-.396.489-.285.733-.64.733-1.067 0-.406-.234-.731-.702-.975-.468-.264-1.313-.528-2.534-.792-3.46-.752-5.19-2.397-5.19-4.937 0-.873.254-1.645.763-2.315.509-.69 1.18-1.22 2.015-1.585a6.76 6.76 0 012.686-.548c2.748 0 4.753 1.148 6.015 3.443l-2.717 1.89c-.733-1.403-1.822-2.103-3.267-2.103-.529 0-.997.122-1.404.365-.387.244-.58.559-.58.945 0 .406.193.741.58 1.005.386.264 1.119.508 2.198.732 1.913.365 3.327.904 4.243 1.615.937.69 1.405 1.696 1.405 3.016 0 1.524-.591 2.733-1.771 3.626-1.16.874-2.626 1.31-4.396 1.31zM152.322 2.434h3.786v11.914l5.037-5.698h4.579l-6.563 7.038 7.266 8.319h-4.58l-5.739-6.978v6.978h-3.786V2.434zM61.104 6.67c-.691 0-1.272-.233-1.74-.7-.468-.468-.702-1.047-.702-1.737 0-.691.234-1.27.702-1.737.468-.467 1.049-.701 1.74-.701.692 0 1.273.234 1.74.7.469.468.703 1.047.703 1.738 0 .69-.234 1.27-.702 1.736-.468.468-1.049.701-1.74.701zm-1.892 1.98h3.785v15.358h-3.785V8.651z"
        fill="#262627"></path>
    <ellipse fill="#111" rx="4.472" ry="4.464" transform="matrix(-1 0 0 1 22.464 4.464)"></ellipse>
    <ellipse fill="#111" rx="4.472" ry="4.464" transform="matrix(-1 0 0 1 8.972 4.464)"></ellipse>
    <path
        d="M1.709 14.486c-1.058 0-1.896.91-1.673 1.943C1.593 23.616 8 29 15.666 29c7.667 0 14.074-5.384 15.631-12.571.223-1.032-.615-1.943-1.672-1.943H1.709z"
        fill="#111"></path>
</svg>