<svg width="57" height="57" viewBox="0 0 57 57" fill="none" xmlns="http://www.w3.org/2000/svg">
<rect width="57" height="57" rx="12" fill="rgba(0,0,0,0.1)"/>
<path d="M28.5 38.5613C27.7448 38.5613 27.1328 37.9493 27.1328 37.1941V19.8057C27.1328 19.0504 27.7448 18.4385 28.5 18.4385C29.2552 18.4385 29.8672 19.0504 29.8672 19.8057V37.1941C29.8672 37.9493 29.2552 38.5613 28.5 38.5613Z" fill="rgb(0,0,0)"/>
<path d="M37.1941 29.8672H19.8057C19.0504 29.8672 18.4385 29.2552 18.4385 28.5C18.4385 27.7448 19.0504 27.1328 19.8057 27.1328H37.1941C37.9493 27.1328 38.5613 27.7448 38.5613 28.5C38.5613 29.2552 37.9493 29.8672 37.1941 29.8672Z" fill="rgb(0,0,0)"/>
</svg>
