          <svg
            width="18"
            height="18"
            viewBox="0 0 18 18"
            fill="none"
            xmlns="http://www.w3.org/2000/svg"
          >
            <path
              d="M10.966 8.46822C12.0564 8.46822 13.0367 8.63474 13.9069 8.96777C14.7771 9.30081 15.5157 9.73321 16.1227 10.265C16.735 10.7914 17.1996 11.3527 17.5166 11.949C17.8389 12.5452 18 13.1065 18 13.6329C18 14.4924 17.342 14.9221 16.026 14.9221H9.08057C9.14503 14.7287 9.19338 14.53 9.2256 14.3259C9.25783 14.1218 9.27663 13.915 9.28201 13.7055H16.4127C16.5148 13.7055 16.5873 13.6893 16.6303 13.6571C16.6786 13.6249 16.7028 13.5658 16.7028 13.4799C16.7028 13.1522 16.5765 12.7735 16.3241 12.3438C16.077 11.9087 15.709 11.4897 15.2202 11.0868C14.7314 10.684 14.1298 10.3509 13.4154 10.0877C12.7064 9.81916 11.8899 9.68487 10.966 9.68487C10.4127 9.68487 9.89705 9.73859 9.41898 9.84602C8.94091 9.95345 8.50582 10.0985 8.1137 10.2811C7.97941 10.1038 7.83438 9.94002 7.6786 9.78961C7.5282 9.63384 7.36974 9.48881 7.20322 9.35452C7.71889 9.08057 8.29096 8.86571 8.91943 8.70994C9.55327 8.54879 10.2355 8.46822 10.966 8.46822ZM10.966 7.46911C10.3321 7.46911 9.75201 7.29991 9.2256 6.9615C8.69919 6.61773 8.27753 6.16115 7.96061 5.59176C7.64906 5.01701 7.4906 4.38585 7.48523 3.6983C7.48523 3.01611 7.641 2.3957 7.95255 1.83706C8.26947 1.27842 8.69114 0.832587 9.21755 0.499552C9.74933 0.166517 10.3321 0 10.966 0C11.6106 0 12.1961 0.163832 12.7225 0.491495C13.2489 0.819158 13.6679 1.26231 13.9794 1.82095C14.291 2.37422 14.4467 2.99463 14.4467 3.68218C14.4467 4.37511 14.2883 5.00895 13.9714 5.58371C13.6598 6.15309 13.2408 6.60967 12.7144 6.95345C12.188 7.29722 11.6052 7.46911 10.966 7.46911ZM10.966 6.25246C11.3635 6.25246 11.7261 6.13697 12.0537 5.906C12.3868 5.67502 12.6526 5.36616 12.8514 4.97941C13.0501 4.58729 13.1495 4.15488 13.1495 3.68218C13.1495 3.21486 13.0501 2.79588 12.8514 2.42525C12.658 2.04924 12.3948 1.7538 12.0618 1.53894C11.7341 1.32408 11.3688 1.21665 10.966 1.21665C10.5685 1.21665 10.2032 1.32677 9.87019 1.547C9.54252 1.76723 9.27932 2.06535 9.08057 2.44136C8.88183 2.812 8.78245 3.23098 8.78245 3.6983C8.78245 4.17099 8.88183 4.60072 9.08057 4.98747C9.28469 5.37422 9.55058 5.68308 9.87825 5.91406C10.2113 6.13966 10.5739 6.25246 10.966 6.25246ZM4.09311 17.6052C3.53447 17.6052 3.00806 17.4978 2.51388 17.2829C2.0197 17.0734 1.5846 16.7807 1.20859 16.4047C0.832587 16.0286 0.537153 15.5936 0.322292 15.0994C0.107431 14.6052 0 14.0761 0 13.5121C0 12.9481 0.107431 12.4217 0.322292 11.9329C0.537153 11.4387 0.832587 11.0036 1.20859 10.6276C1.5846 10.2462 2.0197 9.95076 2.51388 9.74127C3.00806 9.52641 3.53447 9.41898 4.09311 9.41898C4.65712 9.41898 5.18621 9.52641 5.68039 9.74127C6.17457 9.95076 6.60967 10.2435 6.98568 10.6195C7.36168 10.9955 7.65443 11.4306 7.86392 11.9248C8.07878 12.419 8.18621 12.9481 8.18621 13.5121C8.18621 14.0707 8.07878 14.5971 7.86392 15.0913C7.64906 15.5855 7.35094 16.0206 6.96956 16.3966C6.59355 16.7726 6.15846 17.068 5.66428 17.2829C5.1701 17.4978 4.64637 17.6052 4.09311 17.6052ZM1.53089 13.5121C1.53089 13.6625 1.57654 13.7807 1.66786 13.8666C1.75918 13.9579 1.87735 14.0036 2.02238 14.0036H3.60161V15.5828C3.60161 15.7278 3.64458 15.846 3.73053 15.9373C3.82184 16.0286 3.9427 16.0743 4.09311 16.0743C4.24351 16.0743 4.36168 16.0286 4.44763 15.9373C4.53894 15.846 4.5846 15.7278 4.5846 15.5828V14.0036H6.16383C6.30886 14.0036 6.42704 13.9579 6.51835 13.8666C6.60967 13.7807 6.65533 13.6625 6.65533 13.5121C6.65533 13.3617 6.60967 13.2408 6.51835 13.1495C6.42704 13.0636 6.30886 13.0206 6.16383 13.0206H4.5846V11.4414C4.5846 11.2963 4.53894 11.1782 4.44763 11.0868C4.36168 10.9955 4.24351 10.9499 4.09311 10.9499C3.9427 10.9499 3.82184 10.9955 3.73053 11.0868C3.64458 11.1782 3.60161 11.2963 3.60161 11.4414V13.0206H2.02238C1.87735 13.0206 1.75918 13.0636 1.66786 13.1495C1.57654 13.2408 1.53089 13.3617 1.53089 13.5121Z"
              fill="white"
            />
          </svg>