<svg width="18" height="18" viewBox="0 0 18 18" fill="none" xmlns="http://www.w3.org/2000/svg">
<g clip-path="url(#clip0_1441_72810)">
<path d="M3.71981 14.3694H15.9809C16.0184 14.3694 16.0548 14.3641 16.0897 14.3557C16.0925 14.3557 16.0948 14.3562 16.0976 14.3562C16.3593 14.3562 16.572 14.1438 16.572 13.8818V0.474376C16.572 0.212519 16.3593 0 16.0976 0H3.72047C2.45782 0 1.43077 1.02729 1.43077 2.28959C1.43077 2.30651 1.4341 2.32258 1.43575 2.33892C1.4341 3.50498 1.41964 14.2195 1.4341 15.6281C1.4332 15.6556 1.42983 15.6825 1.42983 15.7103C1.42983 16.9241 2.38023 17.9178 3.57567 17.9929C3.59966 17.9966 3.62317 18 3.64805 18H16.0976C16.3593 18 16.5719 17.7876 16.5719 17.5257V15.74C16.5719 15.4783 16.3593 15.2657 16.0976 15.2657C15.8359 15.2657 15.6232 15.4783 15.6232 15.74V17.0513H3.71981C2.99894 17.0513 2.41048 16.479 2.38156 15.7653C2.38227 15.7525 2.38458 15.7405 2.38434 15.7275C2.38387 15.7067 2.38317 15.6743 2.3827 15.6312C2.42416 14.9288 3.00717 14.3694 3.71981 14.3694ZM4.04327 2.28959C4.04327 2.02773 4.25579 1.81521 4.51765 1.81521C4.7795 1.81521 4.99202 2.02773 4.99202 2.28959V11.9254C4.99202 12.1872 4.7795 12.3998 4.51765 12.3998C4.25579 12.3998 4.04327 12.1871 4.04327 11.9254V2.28959Z" fill="rgb(0,0,0)"/>
</g>
<defs>
<clipPath id="clip0_1441_72810">
<rect width="18" height="18" fill="white"/>
</clipPath>
</defs>
</svg>
