<svg width="52" height="53" viewBox="0 0 52 53" fill="none" xmlns="http://www.w3.org/2000/svg">
<path d="M38.5939 18.4465C37.8916 15.6391 36.2715 13.1468 33.9908 11.3653C31.7102 9.5839 28.8998 8.61545 26.0059 8.61377C23.1119 8.61209 20.3004 9.57728 18.0177 11.3561C15.735 13.1349 14.112 15.6253 13.4064 18.4319C10.0781 18.7442 6.99809 20.3267 4.80608 22.8506C2.61406 25.3745 1.47856 28.6458 1.63543 31.985C1.7923 35.3242 3.22948 38.4747 5.64846 40.782C8.06743 43.0893 11.2823 44.376 14.6252 44.375H19.5002C19.9311 44.375 20.3445 44.2038 20.6492 43.899C20.954 43.5943 21.1252 43.181 21.1252 42.75C21.1252 42.319 20.954 41.9057 20.6492 41.6009C20.3445 41.2962 19.9311 41.125 19.5002 41.125H14.6252C13.3448 41.1287 12.0762 40.8802 10.8918 40.3937C9.70747 39.9072 8.63055 39.1921 7.72253 38.2894C5.88872 36.4662 4.85426 33.9893 4.84672 31.4034C4.83918 28.8176 5.85917 26.3346 7.68232 24.5008C9.50547 22.667 11.9824 21.6325 14.5683 21.625C14.9852 21.6564 15.399 21.5318 15.7293 21.2753C16.0596 21.0189 16.2828 20.649 16.3558 20.2372C16.6867 17.9168 17.8436 15.7937 19.6141 14.2578C21.3846 12.7218 23.6498 11.8762 25.9937 11.8762C28.3375 11.8762 30.6027 12.7218 32.3732 14.2578C34.1437 15.7937 35.3006 17.9168 35.6315 20.2372C35.7165 20.6347 35.9368 20.9903 36.2548 21.2434C36.5728 21.4965 36.9688 21.6313 37.3752 21.625C39.961 21.625 42.441 22.6522 44.2694 24.4807C46.0979 26.3092 47.1252 28.7891 47.1252 31.375C47.1252 33.9608 46.0979 36.4408 44.2694 38.2693C42.441 40.0978 39.961 41.125 37.3752 41.125H32.5002C32.0692 41.125 31.6559 41.2962 31.3511 41.6009C31.0464 41.9057 30.8752 42.319 30.8752 42.75C30.8752 43.181 31.0464 43.5943 31.3511 43.899C31.6559 44.2038 32.0692 44.375 32.5002 44.375H37.3752C40.6936 44.3403 43.8731 43.0377 46.2622 40.7343C48.6513 38.4309 50.069 35.301 50.2248 31.9861C50.3806 28.6711 49.2627 25.4221 47.1003 22.9047C44.9378 20.3874 41.8945 18.7923 38.5939 18.4465Z" fill="rgb(0,0,0)"/>
<path d="M32.9767 32.524C33.2831 32.82 33.6936 32.9838 34.1197 32.9801C34.5458 32.9764 34.9533 32.8055 35.2546 32.5042C35.5559 32.2029 35.7268 31.7954 35.7305 31.3693C35.7342 30.9432 35.5704 30.5327 35.2744 30.2263L27.1494 22.1013C26.8447 21.7966 26.4314 21.6255 26.0005 21.6255C25.5696 21.6255 25.1564 21.7966 24.8517 22.1013L16.7267 30.2263C16.4307 30.5327 16.2669 30.9432 16.2706 31.3693C16.2743 31.7954 16.4452 32.2029 16.7465 32.5042C17.0477 32.8055 17.4553 32.9764 17.8814 32.9801C18.3075 32.9838 18.7179 32.82 19.0244 32.524L24.3755 27.1729V47.6251C24.3755 48.0561 24.5467 48.4694 24.8515 48.7742C25.1562 49.0789 25.5696 49.2501 26.0005 49.2501C26.4315 49.2501 26.8448 49.0789 27.1496 48.7742C27.4543 48.4694 27.6255 48.0561 27.6255 47.6251V27.1729L32.9767 32.524Z" fill="rgb(0,0,0)"/>
</svg>
