<svg
                width="12"
                height="15"
                viewBox="0 0 12 15"
                fill="none"
                xmlns="http://www.w3.org/2000/svg"
              >
                <path
                  d="M3.15953 14.5C2.71347 14.5 2.35209 14.3659 2.07537 14.0977C1.80279 13.8336 1.65617 13.4753 1.63552 13.0227L1.20805 3.87584H0.464636C0.340733 3.87584 0.231285 3.82974 0.136293 3.73754C0.0454311 3.64115 0 3.52799 0 3.39807C0 3.27234 0.0454311 3.16337 0.136293 3.07117C0.231285 2.97478 0.340733 2.92658 0.464636 2.92658H11.5354C11.6634 2.92658 11.7728 2.97268 11.8637 3.06489C11.9546 3.15709 12 3.26815 12 3.39807C12 3.52799 11.9546 3.64115 11.8637 3.73754C11.7728 3.82974 11.6634 3.87584 11.5354 3.87584H10.7919L10.3645 13.0164C10.3438 13.469 10.1951 13.8294 9.91843 14.0977C9.64584 14.3659 9.28653 14.5 8.84048 14.5H3.15953ZM3.24626 13.5507H8.74135C8.92308 13.5507 9.07383 13.49 9.1936 13.3684C9.3175 13.2511 9.38358 13.0981 9.39184 12.9095L9.79453 3.87584H2.1745L2.60816 12.9095C2.61642 13.0939 2.68043 13.2469 2.80021 13.3684C2.92411 13.49 3.07279 13.5507 3.24626 13.5507ZM4.16314 12.4758C4.05163 12.4758 3.9587 12.4422 3.88436 12.3752C3.81415 12.3081 3.77904 12.218 3.77904 12.1048L3.58699 5.3846C3.58699 5.27563 3.6221 5.18762 3.69231 5.12057C3.76252 5.04932 3.85545 5.0137 3.97109 5.0137C4.0826 5.0137 4.17346 5.04722 4.24368 5.11428C4.31802 5.18133 4.35725 5.26935 4.36138 5.37831L4.54724 12.1048C4.55137 12.2138 4.51833 12.3039 4.44812 12.3752C4.3779 12.4422 4.28291 12.4758 4.16314 12.4758ZM6.0031 12.4758C5.88333 12.4758 5.78627 12.4422 5.71193 12.3752C5.63758 12.3039 5.60041 12.2138 5.60041 12.1048V5.3846C5.60041 5.27563 5.63758 5.18762 5.71193 5.12057C5.78627 5.04932 5.88333 5.0137 6.0031 5.0137C6.11874 5.0137 6.21373 5.04932 6.28807 5.12057C6.36242 5.18762 6.39959 5.27563 6.39959 5.3846V12.1048C6.39959 12.2138 6.36242 12.3039 6.28807 12.3752C6.21373 12.4422 6.11874 12.4758 6.0031 12.4758ZM7.83686 12.4758C7.71709 12.4758 7.6221 12.4422 7.55188 12.3752C7.48167 12.3039 7.44863 12.2138 7.45276 12.1048L7.63862 5.3846C7.64275 5.27144 7.67992 5.18133 7.75013 5.11428C7.82447 5.04722 7.91533 5.0137 8.02272 5.0137C8.14249 5.0137 8.23748 5.04932 8.30769 5.12057C8.3779 5.18762 8.41301 5.27563 8.41301 5.3846L8.22096 12.1048C8.22096 12.218 8.18379 12.3081 8.10945 12.3752C8.03924 12.4422 7.94837 12.4758 7.83686 12.4758ZM3.28343 3.37292V1.96475C3.28343 1.51212 3.41972 1.15589 3.69231 0.896049C3.96489 0.632016 4.34073 0.5 4.81982 0.5H7.16779C7.64688 0.5 8.02272 0.632016 8.2953 0.896049C8.56789 1.15589 8.70418 1.51212 8.70418 1.96475V3.37292H7.71915V2.02762C7.71915 1.85159 7.6634 1.7091 7.55188 1.60013C7.44037 1.49117 7.29169 1.43669 7.10583 1.43669H4.88178C4.69592 1.43669 4.54724 1.49117 4.43573 1.60013C4.32421 1.7091 4.26846 1.85159 4.26846 2.02762V3.37292H3.28343Z"
                  fill="black"
                />
              </svg>