<svg width="36" height="36" viewBox="0 0 36 36" fill="none" xmlns="http://www.w3.org/2000/svg">
<rect width="36" height="36" rx="8" fill="rgba(0,0,0,0.1)"/>
<path d="M25.875 25.3125C25.875 25.4617 25.8157 25.6048 25.7102 25.7102C25.6048 25.8157 25.4617 25.875 25.3125 25.875H10.6875C10.5383 25.875 10.3952 25.8157 10.2898 25.7102C10.1843 25.6048 10.125 25.4617 10.125 25.3125C10.125 25.1633 10.1843 25.0202 10.2898 24.9148C10.3952 24.8093 10.5383 24.75 10.6875 24.75H25.3125C25.4617 24.75 25.6048 24.8093 25.7102 24.9148C25.8157 25.0202 25.875 25.1633 25.875 25.3125ZM17.6006 22.8994C17.6529 22.9521 17.7151 22.9939 17.7837 23.0225C17.8522 23.0511 17.9257 23.0658 18 23.0658C18.0743 23.0658 18.1478 23.0511 18.2163 23.0225C18.2849 22.9939 18.3471 22.9521 18.3994 22.8994L22.8994 18.3994C23.0053 18.2935 23.0648 18.1498 23.0648 18C23.0648 17.8502 23.0053 17.7065 22.8994 17.6006C22.7935 17.4947 22.6498 17.4352 22.5 17.4352C22.3502 17.4352 22.2065 17.4947 22.1006 17.6006L18.5625 21.1444V10.6875C18.5625 10.5383 18.5032 10.3952 18.3977 10.2898C18.2923 10.1843 18.1492 10.125 18 10.125C17.8508 10.125 17.7077 10.1843 17.6023 10.2898C17.4968 10.3952 17.4375 10.5383 17.4375 10.6875V21.1444L13.8994 17.6006C13.8469 17.5482 13.7847 17.5066 13.7161 17.4782C13.6476 17.4498 13.5742 17.4352 13.5 17.4352C13.4258 17.4352 13.3524 17.4498 13.2839 17.4782C13.2153 17.5066 13.1531 17.5482 13.1006 17.6006C13.0482 17.6531 13.0066 17.7153 12.9782 17.7839C12.9498 17.8524 12.9352 17.9258 12.9352 18C12.9352 18.1498 12.9947 18.2935 13.1006 18.3994L17.6006 22.8994Z" fill="rgba(0,0,0,1)"/>
</svg>
