<svg width="71" height="56" viewBox="0 0 71 56" fill="none" xmlns="http://www.w3.org/2000/svg">
<path fill-rule="evenodd" clip-rule="evenodd" d="M13.8635 13H57.1365C58.313 13 59.3808 13.6876 59.8676 14.7586L67.7046 32H53H51H22H18H3.29538L11.1324 14.7586C11.6192 13.6876 12.6871 13 13.8635 13ZM53 35V39.0884C53 42.3533 50.3533 45 47.0884 45H23.9116C20.6467 45 18 42.3533 18 39.0884V35H3V50C3 51.6569 4.34315 53 6 53H65C66.6569 53 68 51.6569 68 50V35H53ZM21 39.0884V35H22H50V39.0884C50 40.6964 48.6964 42 47.0884 42H23.9116C22.3036 42 21 40.6964 21 39.0884ZM8.40128 13.5172C9.3749 11.3752 11.5106 10 13.8635 10H57.1365C59.4894 10 61.6251 11.3752 62.5987 13.5172L70.4622 30.8168C70.8166 31.5966 71 32.4431 71 33.2997V50C71 53.3137 68.3137 56 65 56H6C2.68629 56 0 53.3137 0 50V33.2997C0 32.4432 0.183377 31.5966 0.537801 30.8168L8.40128 13.5172Z" fill="#979797"/>
<path d="M21 32H50V35H21V32Z" fill="white"/>
<path d="M21 8H50L52 16H19L21 8Z" fill="white"/>
<path fill-rule="evenodd" clip-rule="evenodd" d="M35.5 25C42.4036 25 48 19.4036 48 12.5C48 5.59644 42.4036 0 35.5 0C28.5964 0 23 5.59644 23 12.5C23 19.4036 28.5964 25 35.5 25Z" fill="#EAEAEA"/>
<path fill-rule="evenodd" clip-rule="evenodd" d="M35.5 30C42.9558 30 49 23.9558 49 16.5C49 9.04416 42.9558 3 35.5 3C28.0442 3 22 9.04416 22 16.5C22 23.9558 28.0442 30 35.5 30Z" fill="#CECECE"/>
<path fill-rule="evenodd" clip-rule="evenodd" d="M35.5 36C43.5081 36 50 29.5081 50 21.5C50 13.4919 43.5081 7 35.5 7C27.4919 7 21 13.4919 21 21.5C21 29.5081 27.4919 36 35.5 36Z" fill="#979797"/>
<path fill-rule="evenodd" clip-rule="evenodd" d="M32.2753 17.5594C32.2753 16.6864 33.2521 16.1693 33.9741 16.66L39.7726 20.6008C40.4076 21.0323 40.4076 21.9681 39.7726 22.3997L33.9741 26.3405C33.2521 26.8312 32.2753 26.314 32.2753 25.441L32.2753 17.5594Z" fill="white"/>
</svg>
