              <svg
                width="18"
                height="19"
                viewBox="0 0 18 19"
                fill="none"
                xmlns="http://www.w3.org/2000/svg"
              >
                <path
                  d="M9.00489 11.1279C8.37914 11.1214 7.81206 10.9584 7.30364 10.6391C6.80174 10.3197 6.40087 9.8862 6.10103 9.33867C5.80771 8.78463 5.66105 8.15888 5.66105 7.46143C5.65454 6.80961 5.8012 6.2132 6.10103 5.67219C6.40087 5.12466 6.80174 4.68794 7.30364 4.36203C7.81206 4.03612 8.37914 3.87317 9.00489 3.87317C9.62412 3.87317 10.1847 4.03612 10.6866 4.36203C11.195 4.68794 11.5959 5.12466 11.8892 5.67219C12.189 6.2132 12.3389 6.80961 12.3389 7.46143C12.3389 8.15888 12.189 8.78789 11.8892 9.34845C11.5959 9.9025 11.195 10.3392 10.6866 10.6586C10.1847 10.978 9.62412 11.1344 9.00489 11.1279ZM2.27811 17.5027C2.42151 16.8183 2.69202 16.186 3.08963 15.6059C3.48724 15.0258 3.98262 14.5239 4.57577 14.1002C5.17545 13.6765 5.85008 13.3474 6.59967 13.1127C7.35578 12.8781 8.15752 12.7607 9.00489 12.7607C9.85225 12.7607 10.6507 12.8781 11.4003 13.1127C12.1564 13.3474 12.8311 13.6765 13.4242 14.1002C14.0239 14.5239 14.5225 15.0258 14.9202 15.6059C15.3178 16.186 15.5883 16.8183 15.7317 17.5027H2.27811ZM3.07007 18.5C2.04671 18.5 1.27757 18.2458 0.762629 17.7374C0.25421 17.2355 0 16.4794 0 15.469V3.53096C0 2.52064 0.25421 1.76453 0.762629 1.26263C1.27757 0.75421 2.04671 0.5 3.07007 0.5H14.9299C15.9533 0.5 16.7192 0.75421 17.2276 1.26263C17.7425 1.76453 18 2.52064 18 3.53096V15.469C18 16.4794 17.7425 17.2355 17.2276 17.7374C16.7192 18.2458 15.9533 18.5 14.9299 18.5H3.07007ZM3.08963 16.9259H14.9104C15.3927 16.9259 15.7643 16.7987 16.025 16.5445C16.2922 16.2838 16.4259 15.8992 16.4259 15.3908V3.60918C16.4259 3.10076 16.2922 2.71945 16.025 2.46524C15.7643 2.20451 15.3927 2.07414 14.9104 2.07414H3.08963C2.60076 2.07414 2.22596 2.20451 1.96524 2.46524C1.70451 2.71945 1.57414 3.10076 1.57414 3.60918V15.3908C1.57414 15.8992 1.70451 16.2838 1.96524 16.5445C2.22596 16.7987 2.60076 16.9259 3.08963 16.9259Z"
                  fill="#1B2559"
                />
              </svg>
