<svg width="16" height="11" viewBox="0 0 16 11" fill="none" xmlns="http://www.w3.org/2000/svg">
<path d="M15.1378 5.02861L10.4712 0.361946C10.3454 0.240507 10.177 0.173311 10.0022 0.17483C9.82744 0.176349 9.66023 0.246462 9.53662 0.370067C9.41302 0.493672 9.34291 0.660881 9.34139 0.835678C9.33987 1.01048 9.40707 1.17888 9.5285 1.30461L13.0572 4.83328H1.33317C1.15636 4.83328 0.98679 4.90352 0.861766 5.02854C0.736742 5.15357 0.666504 5.32313 0.666504 5.49995C0.666504 5.67676 0.736742 5.84633 0.861766 5.97135C0.98679 6.09637 1.15636 6.16661 1.33317 6.16661H13.0572L9.5285 9.69528C9.46483 9.75678 9.41404 9.83034 9.3791 9.91168C9.34416 9.99301 9.32577 10.0805 9.325 10.169C9.32423 10.2575 9.3411 10.3453 9.37462 10.4272C9.40814 10.5092 9.45765 10.5836 9.52024 10.6462C9.58284 10.7088 9.65727 10.7583 9.7392 10.7918C9.82113 10.8253 9.90892 10.8422 9.99744 10.8414C10.086 10.8407 10.1734 10.8223 10.2548 10.7873C10.3361 10.7524 10.4097 10.7016 10.4712 10.6379L15.1378 5.97128C15.2628 5.84626 15.333 5.67672 15.333 5.49995C15.333 5.32317 15.2628 5.15363 15.1378 5.02861Z" fill="rgb(0,0,0)"/>
</svg>
