<svg width="50" height="50" viewBox="0 0 50 50" fill="none" xmlns="http://www.w3.org/2000/svg">
<path d="M2.69697 27.697C1.9697 27.697 1.33333 27.4343 0.787879 26.9091C0.262626 26.3838 0 25.7475 0 25C0 24.2525 0.262626 23.6162 0.787879 23.0909C1.33333 22.5455 1.9697 22.2727 2.69697 22.2727H47.303C48.0303 22.2727 48.6566 22.5455 49.1818 23.0909C49.7273 23.6162 50 24.2525 50 25C50 25.7475 49.7273 26.3838 49.1818 26.9091C48.6566 27.4343 48.0303 27.697 47.303 27.697H2.69697ZM25 50C24.2525 50 23.6162 49.7273 23.0909 49.1818C22.5657 48.6566 22.303 48.0303 22.303 47.303V2.69697C22.303 1.9697 22.5657 1.34343 23.0909 0.818182C23.6162 0.272727 24.2525 0 25 0C25.7475 0 26.3838 0.272727 26.9091 0.818182C27.4545 1.34343 27.7273 1.9697 27.7273 2.69697V47.303C27.7273 48.0303 27.4545 48.6566 26.9091 49.1818C26.3838 49.7273 25.7475 50 25 50Z" fill="black"/>
</svg>
