<svg width="18" height="18" viewBox="0 0 18 18" fill="none" xmlns="http://www.w3.org/2000/svg">
<path d="M10.966 8.65812C12.0564 8.65812 13.0367 8.82837 13.9069 9.16888C14.7771 9.50938 15.5157 9.95149 16.1227 10.4952C16.735 11.0334 17.1996 11.6073 17.5166 12.2169C17.8389 12.8265 18 13.4005 18 13.9387C18 14.8174 17.342 15.2568 16.026 15.2568H9.08057C9.14503 15.059 9.19338 14.8558 9.2256 14.6471C9.25783 14.4384 9.27663 14.227 9.28201 14.0128H16.4127C16.5148 14.0128 16.5873 13.9963 16.6303 13.9634C16.6786 13.9304 16.7028 13.87 16.7028 13.7822C16.7028 13.4471 16.5765 13.06 16.3241 12.6206C16.077 12.1757 15.709 11.7474 15.2202 11.3355C14.7314 10.9236 14.1298 10.5831 13.4154 10.314C12.7064 10.0394 11.8899 9.90206 10.966 9.90206C10.4127 9.90206 9.89705 9.95698 9.41898 10.0668C8.94091 10.1767 8.50582 10.3249 8.1137 10.5117C7.97941 10.3304 7.83438 10.1629 7.6786 10.0092C7.5282 9.84988 7.36974 9.7016 7.20322 9.5643C7.71889 9.28421 8.29096 9.06453 8.91943 8.90526C9.55327 8.7405 10.2355 8.65812 10.966 8.65812ZM10.966 7.63661C10.3321 7.63661 9.75201 7.46362 9.2256 7.11762C8.69919 6.76613 8.27753 6.29931 7.96061 5.71716C7.64906 5.12952 7.4906 4.48421 7.48523 3.78124C7.48523 3.08375 7.641 2.44943 7.95255 1.87826C8.26947 1.30709 8.69114 0.851259 9.21755 0.510755C9.74933 0.170252 10.3321 0 10.966 0C11.6106 0 12.1961 0.167506 12.7225 0.502517C13.2489 0.837529 13.6679 1.29062 13.9794 1.86178C14.291 2.42746 14.4467 3.06178 14.4467 3.76476C14.4467 4.47323 14.2883 5.12128 13.9714 5.70892C13.6598 6.29108 13.2408 6.75789 12.7144 7.10938C12.188 7.46087 11.6052 7.63661 10.966 7.63661ZM10.966 6.39268C11.3635 6.39268 11.7261 6.2746 12.0537 6.03844C12.3868 5.80229 12.6526 5.4865 12.8514 5.09108C13.0501 4.69016 13.1495 4.24805 13.1495 3.76476C13.1495 3.28696 13.0501 2.85858 12.8514 2.47963C12.658 2.09519 12.3948 1.79314 12.0618 1.57346C11.7341 1.35378 11.3688 1.24394 10.966 1.24394C10.5685 1.24394 10.2032 1.35652 9.87019 1.58169C9.54252 1.80686 9.27932 2.11167 9.08057 2.49611C8.88183 2.87506 8.78245 3.30343 8.78245 3.78124C8.78245 4.26453 8.88183 4.70389 9.08057 5.09931C9.28469 5.49474 9.55058 5.81053 9.87825 6.04668C10.2113 6.27735 10.5739 6.39268 10.966 6.39268ZM4.09311 18C3.53447 18 3.00806 17.8902 2.51388 17.6705C2.0197 17.4563 1.5846 17.157 1.20859 16.7725C0.832587 16.3881 0.537153 15.9432 0.322292 15.438C0.107431 14.9327 0 14.3918 0 13.8151C0 13.2384 0.107431 12.7002 0.322292 12.2005C0.537153 11.6952 0.832587 11.2503 1.20859 10.8659C1.5846 10.476 2.0197 10.1739 2.51388 9.95973C3.00806 9.74005 3.53447 9.63021 4.09311 9.63021C4.65712 9.63021 5.18621 9.74005 5.68039 9.95973C6.17457 10.1739 6.60967 10.4732 6.98568 10.8577C7.36168 11.2421 7.65443 11.687 7.86392 12.1922C8.07878 12.6975 8.18621 13.2384 8.18621 13.8151C8.18621 14.3863 8.07878 14.9245 7.86392 15.4297C7.64906 15.935 7.35094 16.3799 6.96956 16.7643C6.59355 17.1487 6.15846 17.4508 5.66428 17.6705C5.1701 17.8902 4.64637 18 4.09311 18ZM1.53089 13.8151C1.53089 13.9689 1.57654 14.0897 1.66786 14.1776C1.75918 14.2709 1.87735 14.3176 2.02238 14.3176H3.60161V15.9323C3.60161 16.0805 3.64458 16.2014 3.73053 16.2947C3.82184 16.3881 3.9427 16.4348 4.09311 16.4348C4.24351 16.4348 4.36168 16.3881 4.44763 16.2947C4.53894 16.2014 4.5846 16.0805 4.5846 15.9323V14.3176H6.16383C6.30886 14.3176 6.42704 14.2709 6.51835 14.1776C6.60967 14.0897 6.65533 13.9689 6.65533 13.8151C6.65533 13.6613 6.60967 13.5378 6.51835 13.4444C6.42704 13.3565 6.30886 13.3126 6.16383 13.3126H4.5846V11.6979C4.5846 11.5497 4.53894 11.4288 4.44763 11.3355C4.36168 11.2421 4.24351 11.1954 4.09311 11.1954C3.9427 11.1954 3.82184 11.2421 3.73053 11.3355C3.64458 11.4288 3.60161 11.5497 3.60161 11.6979V13.3126H2.02238C1.87735 13.3126 1.75918 13.3565 1.66786 13.4444C1.57654 13.5378 1.53089 13.6613 1.53089 13.8151Z" fill="black"/>
</svg>
