<svg width="30" height="18" viewBox="0 0 30 18" fill="none" xmlns="http://www.w3.org/2000/svg">
<path d="M1.20641 17.6851C0.871886 17.6851 0.587189 17.5641 0.352313 17.3221C0.117438 17.0872 0 16.8025 0 16.468C0 16.1335 0.117438 15.8488 0.352313 15.6139C0.587189 15.3719 0.871886 15.2509 1.20641 15.2509H21.0107L22.9751 17.6851H1.20641ZM3.54448 16.0409V2.57829C3.54448 1.83096 3.74733 1.26868 4.15302 0.891458C4.56584 0.507116 5.12456 0.314945 5.82918 0.314945H24.9609C25.7082 0.314945 26.274 0.507116 26.6584 0.891458C27.0498 1.26868 27.2456 1.83096 27.2456 2.57829V3.89146H25.5267V3.05872C25.5267 2.71708 25.4413 2.46085 25.2705 2.29003C25.0996 2.11922 24.8434 2.03381 24.5018 2.03381H6.28826C5.94662 2.03381 5.69039 2.11922 5.51957 2.29003C5.34875 2.46085 5.26335 2.71708 5.26335 3.05872V16.0409H3.54448ZM20.5943 5.23665C20.5943 4.5605 20.8149 4.01245 21.2562 3.59253C21.6975 3.1726 22.2705 2.96263 22.9751 2.96263H27.6192C28.3238 2.96263 28.8968 3.1726 29.3381 3.59253C29.7794 4.01245 30 4.5605 30 5.23665V15.411C30 16.0872 29.7794 16.6352 29.3381 17.0552C28.8968 17.4751 28.3238 17.6851 27.6192 17.6851H22.9751C22.2705 17.6851 21.6975 17.4751 21.2562 17.0552C20.8149 16.6352 20.5943 16.0872 20.5943 15.411V5.23665ZM22.0356 5.46085V15.1868C22.0356 15.5142 22.1352 15.774 22.3345 15.9662C22.5338 16.1512 22.8114 16.2438 23.1673 16.2438H27.4377C27.7865 16.2438 28.0605 16.1512 28.2598 15.9662C28.4591 15.774 28.5587 15.5142 28.5587 15.1868V5.46085C28.5587 5.13345 28.4591 4.87722 28.2598 4.69217C28.0605 4.5 27.7865 4.40391 27.4377 4.40391H23.1673C22.8114 4.40391 22.5338 4.5 22.3345 4.69217C22.1352 4.87722 22.0356 5.13345 22.0356 5.46085ZM23.7117 15.5605C23.427 15.5605 23.2847 15.4253 23.2847 15.1548C23.2847 14.8701 23.427 14.7278 23.7117 14.7278H26.9039C27.1815 14.7278 27.3203 14.8701 27.3203 15.1548C27.3203 15.4253 27.1815 15.5605 26.9039 15.5605H23.7117ZM23.9039 5.47153C23.7189 5.47153 23.5694 5.41103 23.4555 5.29003C23.3416 5.16904 23.2847 5.01601 23.2847 4.83096V4.40391H27.3203V4.83096C27.3203 5.01601 27.2633 5.16904 27.1495 5.29003C27.0356 5.41103 26.8861 5.47153 26.7011 5.47153H23.9039Z" fill="black"/>
</svg>
