<svg
                  width="53"
                  height="67"
                  viewBox="0 0 53 67"
                  fill="none"
                  xmlns="http://www.w3.org/2000/svg"
                >
                  <path
                    fillRule="evenodd"
                    clipRule="evenodd"
                    d="M13 13.2308C13 5.92362 19.0442 0 26.5 0C33.9558 0 40 5.92362 40 13.2308V29.7692C40 37.0764 33.9558 43 26.5 43C19.0442 43 13 37.0764 13 29.7692V13.2308ZM26.5 6.61538C22.7721 6.61538 19.75 9.57719 19.75 13.2308V29.7692C19.75 33.4228 22.7721 36.3846 26.5 36.3846C30.2279 36.3846 33.25 33.4228 33.25 29.7692V13.2308C33.25 9.57719 30.2279 6.61538 26.5 6.61538Z"
                    fill="black"
                  />
                  <path
                    fillRule="evenodd"
                    clipRule="evenodd"
                    d="M3.3125 26C5.14194 26 6.625 27.4924 6.625 29.3333C6.625 40.379 15.5233 49.3333 26.5 49.3333C37.4767 49.3333 46.375 40.379 46.375 29.3333C46.375 27.4924 47.8581 26 49.6875 26C51.5169 26 53 27.4924 53 29.3333C53 44.0609 41.1355 56 26.5 56C11.8645 56 0 44.0609 0 29.3333C0 27.4924 1.48306 26 3.3125 26Z"
                    fill="black"
                  />
                  <path
                    fillRule="evenodd"
                    clipRule="evenodd"
                    d="M26.5 50C28.433 50 30 51.5222 30 53.4V63.6C30 65.4778 28.433 67 26.5 67C24.567 67 23 65.4778 23 63.6V53.4C23 51.5222 24.567 50 26.5 50Z"
                    fill="black"
                  />
                </svg>