<svg width="16" height="16" viewBox="0 0 16 16" fill="none" xmlns="http://www.w3.org/2000/svg">
<path d="M14.9609 10.25H13.1328V7.57812C13.1328 7.50078 13.0695 7.4375 12.9922 7.4375H8.63281V5.75H10.5312C10.6859 5.75 10.8125 5.62344 10.8125 5.46875V0.40625C10.8125 0.251562 10.6859 0.125 10.5312 0.125H5.46875C5.31406 0.125 5.1875 0.251562 5.1875 0.40625V5.46875C5.1875 5.62344 5.31406 5.75 5.46875 5.75H7.36719V7.4375H3.00781C2.93047 7.4375 2.86719 7.50078 2.86719 7.57812V10.25H1.03906C0.884375 10.25 0.757812 10.3766 0.757812 10.5312V15.5938C0.757812 15.7484 0.884375 15.875 1.03906 15.875H6.10156C6.25625 15.875 6.38281 15.7484 6.38281 15.5938V10.5312C6.38281 10.3766 6.25625 10.25 6.10156 10.25H4.13281V8.70312H11.8672V10.25H9.89844C9.74375 10.25 9.61719 10.3766 9.61719 10.5312V15.5938C9.61719 15.7484 9.74375 15.875 9.89844 15.875H14.9609C15.1156 15.875 15.2422 15.7484 15.2422 15.5938V10.5312C15.2422 10.3766 15.1156 10.25 14.9609 10.25ZM5.04688 11.5859V14.5391H2.09375V11.5859H5.04688ZM6.52344 4.41406V1.46094H9.47656V4.41406H6.52344ZM13.9062 14.5391H10.9531V11.5859H13.9062V14.5391Z" fill="black"/>
</svg>
