<svg width="14" height="12" viewBox="0 0 14 12" fill="none" xmlns="http://www.w3.org/2000/svg">
<path d="M4.63006 4.71676C4.52987 4.71676 4.45857 4.69942 4.41618 4.66474C4.37765 4.6262 4.35838 4.55684 4.35838 4.45665V4.11561C4.35838 4.01541 4.37765 3.94605 4.41618 3.90751C4.45857 3.86898 4.52987 3.84971 4.63006 3.84971H4.9711C5.07129 3.84971 5.14066 3.86898 5.17919 3.90751C5.22158 3.94605 5.24277 4.01541 5.24277 4.11561V4.45665C5.24277 4.55684 5.22158 4.6262 5.17919 4.66474C5.14066 4.69942 5.07129 4.71676 4.9711 4.71676H4.63006ZM6.55491 4.71676C6.45087 4.71676 6.37958 4.69942 6.34104 4.66474C6.30251 4.6262 6.28324 4.55684 6.28324 4.45665V4.11561C6.28324 4.01541 6.30251 3.94605 6.34104 3.90751C6.37958 3.86898 6.45087 3.84971 6.55491 3.84971H6.89017C6.99422 3.84971 7.06551 3.86898 7.10405 3.90751C7.14258 3.94605 7.16185 4.01541 7.16185 4.11561V4.45665C7.16185 4.55684 7.14258 4.6262 7.10405 4.66474C7.06551 4.69942 6.99422 4.71676 6.89017 4.71676H6.55491ZM8.47399 4.71676C8.36994 4.71676 8.29865 4.69942 8.26012 4.66474C8.22158 4.6262 8.20231 4.55684 8.20231 4.45665V4.11561C8.20231 4.01541 8.22158 3.94605 8.26012 3.90751C8.29865 3.86898 8.36994 3.84971 8.47399 3.84971H8.81503C8.91522 3.84971 8.98459 3.86898 9.02312 3.90751C9.06166 3.94605 9.08092 4.01541 9.08092 4.11561V4.45665C9.08092 4.55684 9.06166 4.6262 9.02312 4.66474C8.98459 4.69942 8.91522 4.71676 8.81503 4.71676H8.47399ZM2.71098 6.60694C2.60694 6.60694 2.53565 6.5896 2.49711 6.55491C2.45857 6.51638 2.43931 6.44701 2.43931 6.34682V6.00578C2.43931 5.90559 2.45857 5.83815 2.49711 5.80347C2.53565 5.76493 2.60694 5.74566 2.71098 5.74566H3.05202C3.15222 5.74566 3.22158 5.76493 3.26012 5.80347C3.29865 5.83815 3.31792 5.90559 3.31792 6.00578V6.34682C3.31792 6.44701 3.29865 6.51638 3.26012 6.55491C3.22158 6.5896 3.15222 6.60694 3.05202 6.60694H2.71098ZM4.63006 6.60694C4.52987 6.60694 4.45857 6.5896 4.41618 6.55491C4.37765 6.51638 4.35838 6.44701 4.35838 6.34682V6.00578C4.35838 5.90559 4.37765 5.83815 4.41618 5.80347C4.45857 5.76493 4.52987 5.74566 4.63006 5.74566H4.9711C5.07129 5.74566 5.14066 5.76493 5.17919 5.80347C5.22158 5.83815 5.24277 5.90559 5.24277 6.00578V6.34682C5.24277 6.44701 5.22158 6.51638 5.17919 6.55491C5.14066 6.5896 5.07129 6.60694 4.9711 6.60694H4.63006ZM6.55491 6.60694C6.45087 6.60694 6.37958 6.5896 6.34104 6.55491C6.30251 6.51638 6.28324 6.44701 6.28324 6.34682V6.00578C6.28324 5.90559 6.30251 5.83815 6.34104 5.80347C6.37958 5.76493 6.45087 5.74566 6.55491 5.74566H6.89017C6.99422 5.74566 7.06551 5.76493 7.10405 5.80347C7.14258 5.83815 7.16185 5.90559 7.16185 6.00578V6.34682C7.16185 6.44701 7.14258 6.51638 7.10405 6.55491C7.06551 6.5896 6.99422 6.60694 6.89017 6.60694H6.55491ZM2.71098 8.50289C2.60694 8.50289 2.53565 8.48362 2.49711 8.44509C2.45857 8.40655 2.43931 8.33719 2.43931 8.23699V7.89595C2.43931 7.79576 2.45857 7.72832 2.49711 7.69364C2.53565 7.65511 2.60694 7.63584 2.71098 7.63584H3.05202C3.15222 7.63584 3.22158 7.65511 3.26012 7.69364C3.29865 7.72832 3.31792 7.79576 3.31792 7.89595V8.23699C3.31792 8.33719 3.29865 8.40655 3.26012 8.44509C3.22158 8.48362 3.15222 8.50289 3.05202 8.50289H2.71098ZM4.63006 8.50289C4.52987 8.50289 4.45857 8.48362 4.41618 8.44509C4.37765 8.40655 4.35838 8.33719 4.35838 8.23699V7.89595C4.35838 7.79576 4.37765 7.72832 4.41618 7.69364C4.45857 7.65511 4.52987 7.63584 4.63006 7.63584H4.9711C5.07129 7.63584 5.14066 7.65511 5.17919 7.69364C5.22158 7.72832 5.24277 7.79576 5.24277 7.89595V8.23699C5.24277 8.33719 5.22158 8.40655 5.17919 8.44509C5.14066 8.48362 5.07129 8.50289 4.9711 8.50289H4.63006ZM6.55491 8.50289C6.45087 8.50289 6.37958 8.48362 6.34104 8.44509C6.30251 8.40655 6.28324 8.33719 6.28324 8.23699V7.89595C6.28324 7.79576 6.30251 7.72832 6.34104 7.69364C6.37958 7.65511 6.45087 7.63584 6.55491 7.63584H6.89017C6.99422 7.63584 7.06551 7.65511 7.10405 7.69364C7.14258 7.72832 7.16185 7.79576 7.16185 7.89595V8.23699C7.16185 8.33719 7.14258 8.40655 7.10405 8.44509C7.06551 8.48362 6.99422 8.50289 6.89017 8.50289H6.55491ZM0 8.84971V1.79191C0 1.19461 0.150289 0.747591 0.450867 0.450867C0.755299 0.150289 1.21002 0 1.81503 0H9.71098C10.316 0 10.7688 0.150289 11.0694 0.450867C11.3699 0.747591 11.5202 1.19461 11.5202 1.79191V5.09249C11.447 5.08092 11.3719 5.07322 11.2948 5.06936C11.2177 5.06551 11.1407 5.06358 11.0636 5.06358C10.9865 5.06358 10.9094 5.06744 10.8324 5.07514C10.7553 5.079 10.6744 5.08478 10.5896 5.09249V3.45087C10.5896 3.18497 10.5202 2.98459 10.3815 2.84971C10.2428 2.71098 10.0443 2.64162 9.78613 2.64162H1.72832C1.47399 2.64162 1.27746 2.71098 1.13873 2.84971C1 2.98459 0.930636 3.18497 0.930636 3.45087V8.90173C0.930636 9.16763 1 9.36802 1.13873 9.50289C1.27746 9.64162 1.47399 9.71098 1.72832 9.71098H7.45665C7.49518 9.87669 7.54528 10.0366 7.60694 10.1908C7.67245 10.3487 7.74759 10.499 7.83237 10.6416H1.81503C1.21002 10.6416 0.755299 10.4913 0.450867 10.1908C0.150289 9.89403 0 9.44701 0 8.84971ZM11.0636 11.7283C10.6628 11.7283 10.2852 11.6513 9.93064 11.4971C9.57611 11.3468 9.26397 11.1368 8.99422 10.8671C8.72447 10.5973 8.51252 10.2852 8.35838 9.93064C8.20424 9.57611 8.12717 9.19653 8.12717 8.79191C8.12717 8.38728 8.20424 8.00963 8.35838 7.65896C8.51252 7.30443 8.72447 6.99229 8.99422 6.72254C9.26397 6.44894 9.57611 6.23699 9.93064 6.08671C10.2852 5.93256 10.6628 5.85549 11.0636 5.85549C11.4682 5.85549 11.8478 5.93256 12.2023 6.08671C12.5568 6.23699 12.869 6.44701 13.1387 6.71676C13.4085 6.98651 13.6185 7.29865 13.7688 7.65318C13.9229 8.00771 14 8.38728 14 8.79191C14 9.19268 13.9229 9.57033 13.7688 9.92486C13.6146 10.2794 13.4008 10.5915 13.1272 10.8613C12.8574 11.131 12.5453 11.343 12.1908 11.4971C11.8362 11.6513 11.4605 11.7283 11.0636 11.7283ZM9.22543 8.79191C9.22543 8.89981 9.25819 8.98651 9.3237 9.05202C9.38921 9.11368 9.47399 9.14451 9.57803 9.14451H10.711V10.2775C10.711 10.3815 10.7418 10.4663 10.8035 10.5318C10.869 10.5973 10.9557 10.6301 11.0636 10.6301C11.1715 10.6301 11.2563 10.5973 11.3179 10.5318C11.3834 10.4663 11.4162 10.3815 11.4162 10.2775V9.14451H12.5491C12.6532 9.14451 12.738 9.11368 12.8035 9.05202C12.869 8.98651 12.9017 8.89981 12.9017 8.79191C12.9017 8.68401 12.869 8.59923 12.8035 8.53757C12.738 8.47206 12.6532 8.43931 12.5491 8.43931H11.4162V7.30636C11.4162 7.20231 11.3834 7.11753 11.3179 7.05202C11.2563 6.98651 11.1715 6.95376 11.0636 6.95376C10.9557 6.95376 10.869 6.98651 10.8035 7.05202C10.7418 7.11753 10.711 7.20231 10.711 7.30636V8.43931H9.57803C9.47399 8.43931 9.38921 8.47206 9.3237 8.53757C9.25819 8.59923 9.22543 8.68401 9.22543 8.79191Z" fill="#000"/>
</svg>
