<svg width="16" height="16" viewBox="0 0 16 16" fill="none" xmlns="http://www.w3.org/2000/svg">
<path d="M0.315998 1.83922C0.179685 1.70298 0.0874735 1.5427 0.0393631 1.35838C-0.00874735 1.17405 -0.0127566 0.989732 0.0273355 0.805409C0.0754459 0.613073 0.171667 0.448785 0.315998 0.312547C0.452311 0.176309 0.612679 0.0841473 0.797102 0.0360631C0.981526 -0.012021 1.16595 -0.012021 1.35037 0.0360631C1.54281 0.0841473 1.70719 0.176309 1.8435 0.312547L15.6873 14.1608C15.8316 14.297 15.9238 14.4573 15.9639 14.6416C16.012 14.8259 16.012 15.0143 15.9639 15.2066C15.9238 15.3909 15.8316 15.5512 15.6873 15.6875C15.551 15.8237 15.3906 15.9159 15.2062 15.9639C15.0218 16.012 14.8373 16.012 14.6529 15.9639C14.4685 15.9159 14.3081 15.8237 14.1718 15.6875L0.315998 1.83922ZM0.315998 14.1608L14.1718 0.312547C14.3081 0.176309 14.4685 0.0841473 14.6529 0.0360631C14.8373 -0.012021 15.0218 -0.012021 15.2062 0.0360631C15.3906 0.0841473 15.551 0.176309 15.6873 0.312547C15.8316 0.448785 15.9238 0.613073 15.9639 0.805409C16.012 0.989732 16.012 1.17405 15.9639 1.35838C15.9238 1.5427 15.8316 1.70298 15.6873 1.83922L1.8435 15.6875C1.70719 15.8237 1.54281 15.9159 1.35037 15.9639C1.16595 16.012 0.981526 16.012 0.797102 15.9639C0.612679 15.9159 0.452311 15.8237 0.315998 15.6875C0.171667 15.5512 0.0754459 15.3909 0.0273355 15.2066C-0.0127566 15.0143 -0.00874735 14.8259 0.0393631 14.6416C0.0874735 14.4573 0.179685 14.297 0.315998 14.1608Z" fill="black"/>
</svg>
