<svg width="13" height="10" viewBox="0 0 13 10" fill="none" xmlns="http://www.w3.org/2000/svg">
<path d="M0.122355 4.21175L1.37958 2.90578C1.46781 2.81561 1.56452 2.77208 1.66971 2.77519C1.77829 2.77519 1.875 2.81872 1.95984 2.90578L3.22215 4.21175C3.30359 4.29571 3.34431 4.38588 3.34431 4.48228C3.34431 4.57556 3.30868 4.65641 3.23742 4.72481C3.16616 4.79322 3.06267 4.82743 2.92693 4.82743H2.07182V6.87034C2.07182 6.97295 2.03279 7.06001 1.95475 7.13153C1.88009 7.19994 1.78847 7.23414 1.67989 7.23414C1.56452 7.23414 1.46781 7.19994 1.38976 7.13153C1.31511 7.06001 1.27778 6.97295 1.27778 6.87034V4.82743H0.412484C0.286931 4.82743 0.186828 4.79478 0.112175 4.72948C0.0409156 4.66418 0.00358909 4.58333 0.000195768 4.48694C-0.00319755 4.39055 0.0375223 4.29882 0.122355 4.21175ZM4.43866 8.54011V1.46455C4.43866 0.979478 4.5693 0.614117 4.83059 0.36847C5.09526 0.122823 5.49059 0 6.01655 0H11.4221C11.9481 0 12.3417 0.122823 12.603 0.36847C12.8677 0.614117 13 0.979478 13 1.46455V8.54011C13 9.0283 12.8677 9.39366 12.603 9.63619C12.3417 9.87873 11.9481 10 11.4221 10H6.01655C5.49059 10 5.09526 9.87873 4.83059 9.63619C4.5693 9.39366 4.43866 9.0283 4.43866 8.54011ZM5.25814 8.52612C5.25814 8.75933 5.32601 8.93812 5.46174 9.0625C5.59748 9.18688 5.79768 9.24907 6.06236 9.24907H11.3814C11.6461 9.24907 11.8446 9.18688 11.9769 9.0625C12.1126 8.93812 12.1805 8.75933 12.1805 8.52612V1.47854C12.1805 1.24534 12.1126 1.06654 11.9769 0.942164C11.8446 0.814677 11.6461 0.750933 11.3814 0.750933H6.06236C5.79768 0.750933 5.59748 0.814677 5.46174 0.942164C5.32601 1.06654 5.25814 1.24534 5.25814 1.47854V8.52612ZM6.39321 7.36474C6.2948 7.36474 6.22015 7.33831 6.16925 7.28545C6.11835 7.22948 6.0929 7.15796 6.0929 7.0709C6.0929 6.94341 6.1455 6.77861 6.25069 6.57649C6.35928 6.37127 6.52046 6.1676 6.73424 5.96549C6.95141 5.76026 7.22457 5.58769 7.55372 5.44776C7.88627 5.30784 8.2748 5.23787 8.71933 5.23787C9.16725 5.23787 9.55578 5.30784 9.88493 5.44776C10.2141 5.58769 10.4872 5.76026 10.7044 5.96549C10.9216 6.1676 11.0828 6.37127 11.188 6.57649C11.2932 6.77861 11.3458 6.94341 11.3458 7.0709C11.3458 7.15796 11.3203 7.22948 11.2694 7.28545C11.2219 7.33831 11.1472 7.36474 11.0454 7.36474H6.39321ZM8.71933 4.85541C8.4784 4.85541 8.25953 4.79789 8.06272 4.68284C7.86591 4.56779 7.70812 4.41231 7.58935 4.21642C7.47398 4.02052 7.41629 3.7982 7.41629 3.54944C7.41629 3.31623 7.47398 3.10323 7.58935 2.91045C7.70812 2.71455 7.86591 2.55908 8.06272 2.44403C8.25953 2.32587 8.4784 2.26679 8.71933 2.26679C8.96025 2.26679 9.17912 2.32587 9.37594 2.44403C9.57614 2.55908 9.73393 2.71455 9.8493 2.91045C9.96807 3.10323 10.0275 3.31623 10.0275 3.54944C10.0275 3.7982 9.96807 4.02208 9.8493 4.22108C9.73393 4.41698 9.57614 4.57245 9.37594 4.6875C9.17912 4.80255 8.96025 4.85852 8.71933 4.85541Z" fill="black"/>
</svg>
