<svg width="18" height="16" viewBox="0 0 18 16" fill="none" xmlns="http://www.w3.org/2000/svg">
<path d="M17.3122 12.3454C17.4968 12.3454 17.6576 12.4169 17.7945 12.5598C17.9315 12.6968 18 12.8665 18 13.069C18 13.2655 17.9315 13.4352 17.7945 13.5782C17.6576 13.7151 17.4968 13.7836 17.3122 13.7836H13.7568V12.3454H17.3122ZM17.2764 6.88734C17.4789 6.88734 17.6486 6.95881 17.7856 7.10174C17.9285 7.23871 18 7.40844 18 7.61092C18 7.8134 17.9285 7.98313 17.7856 8.1201C17.6486 8.25707 17.4789 8.32556 17.2764 8.32556H7.31613V6.88734H17.2764ZM0.678908 6.88734H4.3593V8.32556H0.678908C0.500248 8.32556 0.342432 8.25707 0.205459 8.1201C0.0684864 7.98313 0 7.8134 0 7.61092C0 7.40844 0.0684864 7.23871 0.205459 7.10174C0.342432 6.95881 0.500248 6.88734 0.678908 6.88734ZM10.8268 1.43821V2.87643H0.71464C0.518114 2.87643 0.348387 2.80794 0.205459 2.67097C0.0684864 2.52804 0 2.35533 0 2.15285C0 1.95633 0.0684864 1.78958 0.205459 1.65261C0.348387 1.50968 0.518114 1.43821 0.71464 1.43821H10.8268ZM17.3122 1.43821C17.4968 1.43821 17.6576 1.50968 17.7945 1.65261C17.9315 1.78958 18 1.95633 18 2.15285C18 2.35533 17.9315 2.52804 17.7945 2.67097C17.6576 2.80794 17.4968 2.87643 17.3122 2.87643H13.6318V1.43821H17.3122ZM10.7821 12.3454V13.7836H0.71464C0.518114 13.7836 0.348387 13.7151 0.205459 13.5782C0.0684864 13.4352 0 13.2655 0 13.069C0 12.8665 0.0684864 12.6968 0.205459 12.5598C0.348387 12.4169 0.518114 12.3454 0.71464 12.3454H10.7821ZM12.2025 3.19801C12.4943 3.19801 12.7414 3.09677 12.9439 2.89429C13.1464 2.68586 13.2476 2.43573 13.2476 2.14392C13.2476 1.85211 13.1464 1.60496 12.9439 1.40248C12.7414 1.2 12.4943 1.09876 12.2025 1.09876C11.9107 1.09876 11.6635 1.2 11.461 1.40248C11.2586 1.60496 11.1573 1.85211 11.1573 2.14392C11.1573 2.43573 11.2586 2.68586 11.461 2.89429C11.6635 3.09677 11.9107 3.19801 12.2025 3.19801ZM12.2025 4.29677C11.8094 4.29677 11.4491 4.20149 11.1216 4.01092C10.8 3.81439 10.5409 3.55533 10.3444 3.23375C10.1479 2.9062 10.0496 2.54591 10.0496 2.15285C10.0496 1.7598 10.1479 1.40248 10.3444 1.08089C10.5409 0.75335 10.8 0.491315 11.1216 0.294789C11.4491 0.098263 11.8094 0 12.2025 0C12.5955 0 12.9529 0.098263 13.2744 0.294789C13.602 0.491315 13.861 0.75335 14.0516 1.08089C14.2481 1.40248 14.3464 1.7598 14.3464 2.15285C14.3464 2.54591 14.2481 2.9062 14.0516 3.23375C13.861 3.55533 13.602 3.81439 13.2744 4.01092C12.9529 4.20149 12.5955 4.29677 12.2025 4.29677ZM5.89578 8.65608C6.19355 8.65608 6.44069 8.55484 6.63722 8.35236C6.8397 8.14988 6.94094 7.90273 6.94094 7.61092C6.94094 7.31315 6.8397 7.066 6.63722 6.86948C6.44069 6.667 6.19355 6.56576 5.89578 6.56576C5.60397 6.56576 5.35682 6.667 5.15434 6.86948C4.95186 7.066 4.85062 7.31315 4.85062 7.61092C4.85062 7.90273 4.95186 8.14988 5.15434 8.35236C5.35682 8.55484 5.60397 8.65608 5.89578 8.65608ZM5.89578 9.76377C5.50273 9.76377 5.14243 9.66551 4.81489 9.46898C4.4933 9.27246 4.23424 9.0134 4.03772 8.69181C3.84715 8.36427 3.75186 8.00397 3.75186 7.61092C3.75186 7.21787 3.84715 6.86055 4.03772 6.53896C4.23424 6.21141 4.4933 5.95236 4.81489 5.76179C5.14243 5.56526 5.50273 5.467 5.89578 5.467C6.28883 5.467 6.64615 5.56526 6.96774 5.76179C7.29528 5.95236 7.55434 6.21141 7.74491 6.53896C7.94144 6.86055 8.0397 7.21787 8.0397 7.61092C8.0397 8.00397 7.94144 8.36427 7.74491 8.69181C7.55434 9.0134 7.29528 9.27246 6.96774 9.46898C6.64615 9.66551 6.28883 9.76377 5.89578 9.76377ZM12.2025 14.1141C12.4943 14.1141 12.7414 14.0129 12.9439 13.8104C13.1464 13.6079 13.2476 13.3608 13.2476 13.069C13.2476 12.7712 13.1464 12.5241 12.9439 12.3275C12.7414 12.1251 12.4943 12.0238 12.2025 12.0238C11.9107 12.0238 11.6635 12.1251 11.461 12.3275C11.2586 12.5241 11.1573 12.7712 11.1573 13.069C11.1573 13.3608 11.2586 13.6079 11.461 13.8104C11.6635 14.0129 11.9107 14.1141 12.2025 14.1141ZM12.2025 15.2129C11.8094 15.2129 11.4491 15.1146 11.1216 14.9181C10.8 14.7275 10.5409 14.4685 10.3444 14.1409C10.1479 13.8194 10.0496 13.462 10.0496 13.069C10.0496 12.6759 10.1479 12.3186 10.3444 11.997C10.5409 11.6695 10.8 11.4104 11.1216 11.2199C11.4491 11.0233 11.8094 10.9251 12.2025 10.9251C12.5955 10.9251 12.9529 11.0233 13.2744 11.2199C13.602 11.4104 13.861 11.6695 14.0516 11.997C14.2481 12.3186 14.3464 12.6759 14.3464 13.069C14.3464 13.462 14.2481 13.8194 14.0516 14.1409C13.861 14.4685 13.602 14.7275 13.2744 14.9181C12.9529 15.1146 12.5955 15.2129 12.2025 15.2129Z" fill="black"/>
</svg>
