<svg width="14" height="18" viewBox="0 0 14 18" fill="none" xmlns="http://www.w3.org/2000/svg">
<path d="M3.68611 17.048C3.16572 17.048 2.74411 16.8938 2.42127 16.5854C2.10325 16.2819 1.9322 15.8699 1.90811 15.3495L1.4094 4.83323H0.542075C0.397522 4.83323 0.269833 4.78022 0.159009 4.67422C0.0530029 4.56339 0 4.43329 0 4.28392C0 4.13937 0.0530029 4.01409 0.159009 3.90808C0.269833 3.79726 0.397522 3.74185 0.542075 3.74185H13.4579C13.6073 3.74185 13.735 3.79485 13.841 3.90086C13.947 4.00686 14 4.13455 14 4.28392C14 4.43329 13.947 4.56339 13.841 4.67422C13.735 4.78022 13.6073 4.83323 13.4579 4.83323H12.5906L12.0919 15.3423C12.0678 15.8627 11.8943 16.277 11.5715 16.5854C11.2535 16.8938 10.8343 17.048 10.3139 17.048H3.68611ZM3.7873 15.9566H10.1982C10.4103 15.9566 10.5861 15.8867 10.7259 15.747C10.8704 15.6121 10.9475 15.4362 10.9572 15.2194L11.4269 4.83323H2.53691L3.04285 15.2194C3.05249 15.4314 3.12717 15.6073 3.26691 15.747C3.41146 15.8867 3.58493 15.9566 3.7873 15.9566ZM4.857 14.7207C4.7269 14.7207 4.61848 14.6821 4.53175 14.605C4.44984 14.5279 4.40888 14.4243 4.40888 14.2942L4.18482 6.56787C4.18482 6.44259 4.22578 6.3414 4.30769 6.2643C4.38961 6.18239 4.49802 6.14143 4.63294 6.14143C4.76304 6.14143 4.86904 6.17998 4.95096 6.25708C5.03769 6.33417 5.08346 6.43536 5.08828 6.56064L5.30511 14.2942C5.30993 14.4195 5.27138 14.5231 5.18947 14.605C5.10755 14.6821 4.99673 14.7207 4.857 14.7207ZM7.00361 14.7207C6.86388 14.7207 6.75065 14.6821 6.66391 14.605C6.57718 14.5231 6.53382 14.4195 6.53382 14.2942V6.56787C6.53382 6.44259 6.57718 6.3414 6.66391 6.2643C6.75065 6.18239 6.86388 6.14143 7.00361 6.14143C7.13853 6.14143 7.24935 6.18239 7.33609 6.2643C7.42282 6.3414 7.46619 6.44259 7.46619 6.56787V14.2942C7.46619 14.4195 7.42282 14.5231 7.33609 14.605C7.24935 14.6821 7.13853 14.7207 7.00361 14.7207ZM9.143 14.7207C9.00327 14.7207 8.89245 14.6821 8.81053 14.605C8.72862 14.5231 8.69007 14.4195 8.69489 14.2942L8.91172 6.56787C8.91654 6.43777 8.9599 6.33417 9.04182 6.25708C9.12855 6.17998 9.23456 6.14143 9.35983 6.14143C9.49957 6.14143 9.61039 6.18239 9.69231 6.2643C9.77422 6.3414 9.81518 6.44259 9.81518 6.56787L9.59112 14.2942C9.59112 14.4243 9.54775 14.5279 9.46102 14.605C9.37911 14.6821 9.2731 14.7207 9.143 14.7207ZM3.83067 4.25501V2.63601C3.83067 2.11562 3.98967 1.70605 4.30769 1.40731C4.62571 1.10375 5.06419 0.951965 5.62313 0.951965H8.36242C8.92136 0.951965 9.35983 1.10375 9.67785 1.40731C9.99587 1.70605 10.1549 2.11562 10.1549 2.63601V4.25501H9.00568V2.70829C9.00568 2.50591 8.94063 2.34209 8.81053 2.21681C8.68043 2.09153 8.50697 2.02889 8.29014 2.02889H5.69541C5.47858 2.02889 5.30511 2.09153 5.17501 2.21681C5.04491 2.34209 4.97987 2.50591 4.97987 2.70829V4.25501H3.83067Z" fill="black"/>
</svg>
