<svg width="21" height="18" viewBox="0 0 21 18" fill="none" xmlns="http://www.w3.org/2000/svg">
<path d="M0 12.6091V2.51427C0 1.74497 0.187919 1.17534 0.563758 0.805373C0.94547 0.435407 1.51216 0.250423 2.26384 0.250423H18.7362C19.4878 0.250423 20.0516 0.435407 20.4274 0.805373C20.8091 1.17534 21 1.74497 21 2.51427V12.6091C21 13.3784 20.8091 13.948 20.4274 14.318C20.0516 14.6879 19.4878 14.8729 18.7362 14.8729H2.26384C1.51216 14.8729 0.94547 14.6879 0.563758 14.318C0.187919 13.948 0 13.3784 0 12.6091ZM1.4182 12.5914C1.4182 12.8968 1.48574 13.117 1.62081 13.2521C1.76174 13.3872 1.9849 13.4547 2.29027 13.4547H18.7097C19.0092 13.4547 19.2294 13.3872 19.3704 13.2521C19.5113 13.117 19.5818 12.8968 19.5818 12.5914V2.54069C19.5818 2.22945 19.5113 2.0063 19.3704 1.87123C19.2294 1.73616 19.0092 1.66863 18.7097 1.66863H2.29027C1.9849 1.66863 1.76174 1.73616 1.62081 1.87123C1.48574 2.0063 1.4182 2.22945 1.4182 2.54069V12.5914ZM7.4698 16.9694L7.79572 14.7584H13.2043L13.5302 16.9694H7.4698ZM6.52727 18C6.33347 18 6.16611 17.9295 6.02517 17.7886C5.8901 17.6535 5.82257 17.4891 5.82257 17.2953C5.82257 17.0956 5.8901 16.9253 6.02517 16.7844C6.16611 16.6435 6.33347 16.573 6.52727 16.573H14.552C14.7517 16.573 14.919 16.6435 15.0541 16.7844C15.1951 16.9253 15.2655 17.0956 15.2655 17.2953C15.2655 17.4891 15.1951 17.6535 15.0541 17.7886C14.919 17.9295 14.7517 18 14.552 18H6.52727Z" fill="black"/>
</svg>
