<svg width="145" height="150" viewBox="30 0 100 100" fill="none" xmlns="http://www.w3.org/2000/svg">
<path d="M79.0304 63.8411C79.2846 62.8341 80.7154 62.834 80.9696 63.841L81.4253 65.6465C82.7673 70.9629 87.1719 75.0216 92.5658 76.0071C93.6595 76.2069 93.6595 77.7931 92.5658 77.9929C87.1719 78.9784 82.7673 83.0371 81.4253 88.3535L80.9696 90.1589C80.7154 91.1659 79.2846 91.166 79.0304 90.159L78.5747 88.3535C77.2327 83.0371 72.8281 78.9784 67.4342 77.9929C66.3405 77.7931 66.3405 76.2069 67.4342 76.0071C72.8281 75.0216 77.2327 70.9629 78.5747 65.6465L79.0304 63.8411Z" fill="url(#paint0_linear_553_80069)"/>
<path d="M70.3047 31.9804C70.4007 31.1548 71.5993 31.1548 71.6953 31.9804L71.8127 32.9898C72.172 36.08 74.5276 38.5622 77.5947 39.0827L78.9332 39.3099C79.7104 39.4418 79.7104 40.5582 78.9332 40.6901L77.5947 40.9173C74.5276 41.4378 72.172 43.92 71.8127 47.0102L71.6953 48.0196C71.5993 48.8452 70.4007 48.8452 70.3047 48.0196L70.1873 47.0102C69.828 43.92 67.4724 41.4378 64.4053 40.9173L63.0668 40.6901C62.2896 40.5582 62.2896 39.4418 63.0668 39.3099L64.4053 39.0827C67.4724 38.5622 69.828 36.08 70.1873 32.9898L70.3047 31.9804Z" fill="url(#paint1_linear_553_80069)"/>
<defs>
<linearGradient id="paint0_linear_553_80069" x1="80" y1="59.4516" x2="80" y2="94.5484" gradientUnits="userSpaceOnUse">
<stop stop-color="#FF9900"/>
<stop offset="0.22" stop-color="#FF9900"/>
<stop offset="1" stop-color="#FF9900"/>
</linearGradient>
<linearGradient id="paint1_linear_553_80069" x1="71" y1="28" x2="71" y2="52" gradientUnits="userSpaceOnUse">
<stop stop-color="#CDFF3D"/>
<stop offset="0.22" stop-color="white"/>
<stop offset="1" stop-color="#FF9900"/>
</linearGradient>
</defs>
</svg>
