<svg width="18" height="13" viewBox="0 0 18 13" fill="none" xmlns="http://www.w3.org/2000/svg">
<path d="M6.62622 12.8258C6.45893 12.8258 6.30068 12.7896 6.15147 12.7173C6.00678 12.6495 5.85531 12.5387 5.69706 12.3849L0.339111 7.3322C0.212509 7.21012 0.124341 7.08578 0.0746044 6.95917C0.0248681 6.83257 0 6.71501 0 6.6065C0 6.49346 0.0226074 6.37364 0.0678222 6.24704C0.117558 6.12044 0.207988 5.9961 0.339111 5.87402L5.69706 0.868744C5.87792 0.696928 6.03391 0.574848 6.16503 0.502505C6.29616 0.42564 6.44537 0.387207 6.61266 0.387207C6.84778 0.387207 7.03994 0.468594 7.18915 0.631367C7.34288 0.79414 7.41974 0.988563 7.41974 1.21464V2.91697L6.32781 3.77831V1.88608C6.32781 1.82278 6.29616 1.79113 6.23286 1.79113C6.21025 1.79113 6.1899 1.79791 6.17182 1.81147C6.15373 1.82052 6.13564 1.83182 6.11756 1.84538L1.28862 6.47764C1.23888 6.52285 1.21402 6.56581 1.21402 6.6065C1.21402 6.62458 1.21854 6.64493 1.22758 6.66754C1.24115 6.68562 1.26149 6.70823 1.28862 6.73536L6.11756 11.3066C6.15825 11.3473 6.19668 11.3676 6.23286 11.3676C6.29616 11.3676 6.32781 11.3337 6.32781 11.2659V9.42112L7.41974 10.2892V12.0323C7.41974 12.2629 7.34514 12.4528 7.19593 12.602C7.04672 12.7512 6.85682 12.8258 6.62622 12.8258ZM10.0038 12.8258C9.83647 12.8258 9.68048 12.7896 9.5358 12.7173C9.39111 12.6495 9.23738 12.5387 9.0746 12.3849L3.72344 7.3322C3.59231 7.21012 3.50188 7.08578 3.45215 6.95917C3.40241 6.83257 3.37754 6.71501 3.37754 6.6065C3.37754 6.49346 3.40241 6.37364 3.45215 6.24704C3.50188 6.12044 3.59231 5.9961 3.72344 5.87402L9.0746 0.868744C9.25546 0.696928 9.41145 0.574848 9.54258 0.502505C9.6737 0.42564 9.82291 0.387207 9.9902 0.387207C10.2298 0.387207 10.4243 0.468594 10.5735 0.631367C10.7227 0.79414 10.7973 0.988563 10.7973 1.21464V3.77831H10.994C12.2148 3.77831 13.266 3.96596 14.1477 4.34124C15.0339 4.71652 15.7596 5.2591 16.3248 5.96897C16.8945 6.67884 17.315 7.53566 17.5863 8.53943C17.8621 9.53868 18 10.6645 18 11.917C18 12.2109 17.9277 12.4347 17.783 12.5884C17.6428 12.7467 17.4823 12.8258 17.3014 12.8258C17.1567 12.8258 17.0098 12.7964 16.8606 12.7376C16.7159 12.6788 16.5848 12.5409 16.4672 12.3239C16.0739 11.5824 15.6194 11.0036 15.104 10.5877C14.5885 10.1672 13.994 9.87101 13.3203 9.69919C12.6466 9.52737 11.8711 9.44146 10.994 9.44146H10.7973V12.0323C10.7973 12.2629 10.7227 12.4528 10.5735 12.602C10.4243 12.7512 10.2344 12.8258 10.0038 12.8258ZM9.61718 11.3676C9.67596 11.3676 9.70535 11.3337 9.70535 11.2659V8.64116C9.70535 8.49195 9.78222 8.41735 9.93595 8.41735H10.8448C11.9164 8.41735 12.8591 8.53491 13.6729 8.77003C14.4868 9.00062 15.165 9.32843 15.7076 9.75345C16.2502 10.1785 16.6549 10.6736 16.9216 11.2388C16.9307 11.2614 16.9397 11.2794 16.9488 11.293C16.9578 11.3021 16.9691 11.3066 16.9827 11.3066C17.0188 11.3066 17.0369 11.2817 17.0369 11.232C17.0098 10.5944 16.9239 9.96596 16.7792 9.34651C16.639 8.72255 16.4243 8.13702 16.1349 7.58992C15.8455 7.04282 15.4657 6.56128 14.9955 6.14531C14.5252 5.72481 13.9488 5.397 13.266 5.16189C12.5833 4.92225 11.7762 4.80243 10.8448 4.80243H9.93595C9.78222 4.80243 9.70535 4.72783 9.70535 4.57862V1.88608C9.70535 1.82278 9.6737 1.79113 9.6104 1.79113C9.58779 1.79113 9.56745 1.79791 9.54936 1.81147C9.53127 1.82052 9.51319 1.83182 9.4951 1.84538L4.66616 6.47764C4.61643 6.52285 4.59156 6.56581 4.59156 6.6065C4.59156 6.62458 4.59608 6.64493 4.60512 6.66754C4.61869 6.68562 4.63904 6.70823 4.66616 6.73536L9.4951 11.3066C9.5358 11.3473 9.57649 11.3676 9.61718 11.3676Z" fill="black"/>
</svg>
