<svg width="18" height="18" viewBox="0 0 18 18" fill="none" xmlns="http://www.w3.org/2000/svg">
<path d="M2.39695 17.4427C1.59796 17.4427 0.997455 17.2443 0.59542 16.8473C0.198473 16.4555 0 15.8651 0 15.0763V10.5573C0 10.2112 0.0305344 9.93639 0.0916031 9.73283C0.152672 9.52417 0.267176 9.31552 0.435115 9.10687L3.07634 5.8397C3.3715 5.47328 3.64631 5.16031 3.90076 4.90077C4.15522 4.64122 4.43257 4.44275 4.73282 4.30535C5.03817 4.16794 5.4173 4.09924 5.87023 4.09924H6.99237V5.17557H5.77863C5.50382 5.17557 5.22901 5.27736 4.9542 5.48092C4.68448 5.68448 4.45547 5.90331 4.26718 6.13741L1.56489 9.54962C1.4173 9.73283 1.36387 9.87023 1.40458 9.96183C1.44529 10.0483 1.57506 10.0916 1.79389 10.0916H6.64122C6.83969 10.0916 6.98728 10.1552 7.08397 10.2824C7.18066 10.4097 7.22901 10.5522 7.22901 10.7099V10.7405C7.22901 11.0356 7.30025 11.3232 7.44275 11.6031C7.59033 11.8779 7.79644 12.1069 8.06107 12.2901C8.3257 12.4682 8.63868 12.5573 9 12.5573C9.36132 12.5573 9.6743 12.4682 9.93893 12.2901C10.2036 12.1069 10.4097 11.8779 10.5573 11.6031C10.7048 11.3232 10.7786 11.0356 10.7786 10.7405V10.7099C10.7786 10.5522 10.8244 10.4097 10.916 10.2824C11.0127 10.1552 11.1603 10.0916 11.3588 10.0916H16.2214C16.43 10.0916 16.5573 10.0509 16.6031 9.96947C16.6489 9.88804 16.5954 9.74809 16.4427 9.54962L13.7328 6.13741C13.5445 5.90331 13.3155 5.68448 13.0458 5.48092C12.7761 5.27736 12.5013 5.17557 12.2214 5.17557H11.0153V4.09924H12.1374C12.5852 4.09924 12.9618 4.16794 13.2672 4.30535C13.5725 4.44275 13.8499 4.64122 14.0992 4.90077C14.3537 5.16031 14.631 5.47328 14.9313 5.8397L17.5649 9.10687C17.7379 9.31552 17.8524 9.52417 17.9084 9.73283C17.9695 9.93639 18 10.2112 18 10.5573V15.0763C18 15.8601 17.8015 16.4504 17.4046 16.8473C17.0076 17.2443 16.4071 17.4427 15.6031 17.4427H2.39695ZM2.41221 16.2137H15.5878C15.9644 16.2137 16.2545 16.112 16.458 15.9084C16.6667 15.7048 16.771 15.4046 16.771 15.0076V11.2137H11.9313C11.8702 11.687 11.7048 12.112 11.4351 12.4886C11.1705 12.8601 10.827 13.1552 10.4046 13.374C9.98728 13.5878 9.51908 13.6947 9 13.6947C8.486 13.6947 8.01781 13.5878 7.59542 13.374C7.17812 13.1552 6.83461 12.8601 6.56489 12.4886C6.29517 12.112 6.12977 11.687 6.0687 11.2137H1.22901V15.0076C1.22901 15.4046 1.33079 15.7048 1.53435 15.9084C1.73791 16.112 2.03053 16.2137 2.41221 16.2137ZM9.00763 10C8.92621 10 8.84987 9.98728 8.77863 9.96183C8.71247 9.9313 8.64122 9.87786 8.56489 9.80153L5.98473 7.31298C5.8626 7.19084 5.80153 7.05598 5.80153 6.9084C5.80153 6.75064 5.85242 6.62341 5.9542 6.52672C6.06107 6.42494 6.19338 6.37405 6.35114 6.37405C6.52417 6.37405 6.66412 6.43512 6.77099 6.55725L7.9313 7.78626L8.44275 8.32825L8.39695 7.18321V1.14504C8.39695 0.98728 8.45547 0.849876 8.57252 0.732827C8.69466 0.615779 8.83969 0.557255 9.00763 0.557255C9.17048 0.557255 9.31043 0.615779 9.42748 0.732827C9.54962 0.849876 9.61069 0.98728 9.61069 1.14504V7.18321L9.56489 8.32825L10.0763 7.78626L11.2366 6.55725C11.3435 6.43512 11.4809 6.37405 11.6489 6.37405C11.8066 6.37405 11.9389 6.42494 12.0458 6.52672C12.1527 6.62341 12.2061 6.75064 12.2061 6.9084C12.2061 7.05598 12.145 7.19084 12.0229 7.31298L9.44275 9.80153C9.36641 9.87786 9.29262 9.9313 9.22137 9.96183C9.15522 9.98728 9.08397 10 9.00763 10Z" fill="black"/>
</svg>
