<svg width="14" height="14" viewBox="0 0 14 14" fill="none" xmlns="http://www.w3.org/2000/svg">
<path d="M2.22241 13.9898C1.48632 13.9898 0.9319 13.8058 0.55914 13.4378C0.18638 13.0744 0 12.5271 0 11.7957V3.6422C0 2.91083 0.18638 2.36349 0.55914 2.00017C0.9319 1.63212 1.48632 1.4481 2.22241 1.4481H9.83096L8.69145 2.58762H2.24364C1.88975 2.58762 1.61608 2.68199 1.42262 2.87073C1.23388 3.05947 1.13951 3.33786 1.13951 3.7059V11.7391C1.13951 12.1072 1.23388 12.3855 1.42262 12.5743C1.61608 12.7583 1.88975 12.8503 2.24364 12.8503H10.5175C10.7581 12.8503 10.9658 12.7583 11.1403 12.5743C11.3149 12.3855 11.4022 12.1072 11.4022 11.7391V5.36916L12.5417 4.22965V11.7957C12.5417 12.5271 12.3648 13.0744 12.0109 13.4378C11.6617 13.8058 11.1686 13.9898 10.5317 13.9898H2.22241ZM4.7987 9.40347C4.73264 9.43178 4.6713 9.41762 4.61468 9.361C4.56277 9.29966 4.55098 9.23832 4.57929 9.17698L5.21628 7.84637L11.8198 1.24285L12.7894 2.19834L6.17885 8.80186L4.7987 9.40347ZM13.3132 1.68167L12.3436 0.704942L12.8602 0.195346C12.9782 0.0821026 13.1127 0.0207623 13.2637 0.0113253C13.4194 0.00188834 13.5515 0.0514324 13.66 0.159958L13.8228 0.329823C13.9455 0.447785 14.0045 0.584621 13.9997 0.740331C13.9997 0.891322 13.9408 1.03052 13.8228 1.15792L13.3132 1.68167Z" fill="black"/>
</svg>
