<svg width="37" height="37" viewBox="0 0 37 37" fill="none" xmlns="http://www.w3.org/2000/svg">
<path d="M18.4988 8.01138C23.3608 8.01138 27.6266 11.5399 30.3535 14.506C31.564 15.8226 32.1692 16.481 32.3735 17.8448C32.4235 18.1786 32.4235 18.8441 32.3735 19.178C32.1692 20.5418 31.564 21.2001 30.3535 22.5168C27.6266 25.4829 23.3608 29.0114 18.4988 29.0114C13.6368 29.0114 9.371 25.4829 6.64408 22.5168C5.4336 21.2001 4.82836 20.5418 4.62408 19.178C4.57407 18.8441 4.57407 18.1786 4.62408 17.8448C4.82836 16.481 5.4336 15.8226 6.64408 14.506C9.371 11.5399 13.6368 8.01138 18.4988 8.01138Z" stroke="white" stroke-width="2.25" stroke-linejoin="round"/>
<path d="M22.9988 18.5114C22.9988 20.9967 20.9841 23.0114 18.4988 23.0114C16.0135 23.0114 13.9988 20.9967 13.9988 18.5114C13.9988 16.0261 16.0135 14.0114 18.4988 14.0114C20.9841 14.0114 22.9988 16.0261 22.9988 18.5114Z" stroke="white" stroke-width="2.25" stroke-linejoin="round"/>
</svg>
