<svg width="36" height="35" viewBox="0 0 36 35" fill="none" xmlns="http://www.w3.org/2000/svg">
<path fill-rule="evenodd" clip-rule="evenodd" d="M0.5 6.5625C0.5 2.93813 3.43813 0 7.0625 0H28.9375C32.5619 0 35.5 2.93813 35.5 6.5625V28.4375C35.5 32.0619 32.5619 35 28.9375 35H7.0625C3.43813 35 0.5 32.0619 0.5 28.4375V6.5625ZM7.0625 4.375C5.85438 4.375 4.875 5.35438 4.875 6.5625V28.4375C4.875 29.6456 5.85438 30.625 7.0625 30.625H28.9375C30.1456 30.625 31.125 29.6456 31.125 28.4375V6.5625C31.125 5.35438 30.1456 4.375 28.9375 4.375H7.0625Z" fill="black"/>
</svg>
