<svg xmlns="http://www.w3.org/2000/svg" width="512" height="512" id="html">
  <path d="M484.219 500.595L145.582 500.597C140.526 500.591 135.325 500.756 130.312 500.016C108.447 496.787 90.3785 476.656 90.2842 454.375L90.2826 195.311C90.3262 167.482 105.686 143.939 135.44 141.337C142.209 140.745 149.362 141.15 156.173 141.15L490.733 141.943C497.314 141.941 504.805 141.257 511.279 142.413C532.042 146.12 550.254 167.132 550.314 188.294L550.31 448.841C550.309 452.917 550.408 457.199 549.752 461.233C546.645 480.329 529.739 496.843 510.797 500.182C507.481 500.767 503.812 500.565 500.452 500.575L484.219 500.595ZM159.97 153.696C146.718 153.678 132.42 151.81 120.745 159.303C103.677 170.258 102.891 183.635 102.876 201.518L102.881 223.461L481.406 223.503L537.676 223.628L537.677 201.272C537.674 196.329 538.024 191.057 537.437 186.153C535.562 170.478 522.866 157.89 507.691 154.859C503.772 154.077 499.474 154.407 495.485 154.406L159.97 153.696ZM138.67 236.007L114.76 236.035C110.875 236.041 106.751 235.763 102.893 236.159L102.89 435.089C102.893 442.237 102.196 450.318 103.342 457.367C105.943 473.357 118.272 485.966 134.375 488.227C137.989 488.735 141.871 488.488 145.518 488.49L502.072 488.501L508.257 487.801C522.396 485.271 532.576 474.58 536.652 461.263C537.975 456.939 537.671 451.914 537.685 447.449L537.614 236.102L138.67 236.007Z" transform="scale(.8)"></path>
  <path d="M253.121 207.187C227.388 210.335 223.282 173.436 248.333 169.777 271.724 168.156 278.311 201.591 253.121 207.187zM248.813 183.215C240.79 185.355 242.575 194.557 250.949 194.41 258.859 192.139 257.527 182.817 248.813 183.215zM149.221 207.753C124.288 209.355 119.064 173.309 144.576 170.103 169.671 168.687 175.13 202.546 149.221 207.753zM144.731 183.504C136.767 186.011 139.707 194.753 148.478 194.28 155.869 190.876 152.801 182.904 144.731 183.504zM201.944 207.161C176.565 209.937 172.22 175.235 196.008 170.373 221.642 167.771 226.452 202.196 201.944 207.161zM197.267 183.478C189.476 186.354 192.375 195.11 200.658 194.325 207.632 190.855 205.672 182.689 197.267 183.478zM491.605 208.428L371.627 208.527C362.355 208.525 351.887 209.77 344.428 202.963 330.645 190.383 341.186 171.93 360.206 171.073L480.771 171.005C485.995 171.007 491.499 170.655 496.675 171.374 516.424 174.116 520.973 206.052 491.605 208.428zM358.089 183.75C351.411 185.192 348.463 192.289 355.156 194.981L355.493 195.12C356.81 195.624 358.444 195.639 359.844 195.662L479.901 195.687C484.232 195.685 489.317 196.161 493.557 195.315 500.299 193.585 503.157 187.651 495.264 184.291 492.29 183.025 455.434 183.729 449.312 183.728L358.089 183.75zM301.069 429.857C293.95 431.447 290.389 425.816 292.059 419.563 293.16 415.443 294.715 411.385 296.128 407.361L334.218 304.549C335.236 301.661 336.631 300.122 339.356 298.799 347.248 298.029 350.297 302.858 348.281 309.949 345.473 319.824 341.375 329.54 337.777 339.163L309.47 414.799C307.43 420.032 306.346 426.884 301.069 429.857zM261.718 418.932C253.894 420.608 240.632 409.349 234.057 405.199L218.171 395.391C213.835 392.683 209.397 389.913 205.754 386.296 194.076 374.703 196.185 355.626 208.42 345.544 214.592 340.457 222.153 336.48 228.929 332.227L247.645 320.614C251.404 318.341 255.105 315.678 259.338 314.406 266.029 314.324 271.053 321.565 266.265 327.192 263.721 330.18 258.728 332.122 255.312 334.1L231.576 348.392C216.758 357.295 199.321 366.238 224.053 381.628L255.299 400.232C259.284 402.484 268.854 406.098 267.042 412.31L266.735 413.33C265.899 416.109 264.221 417.625 261.718 418.932zM380.409 419.386C374.786 418.366 370.49 412.117 374.607 407.119 377.235 403.929 382.441 401.944 385.992 399.858L415.762 381.687C438.074 367.843 428.423 360.163 412.002 350.205L390.508 337.04C385.727 334.208 379.923 331.543 375.671 328.002 369.092 322.523 373.25 315.694 380.412 314.445 385.554 314.06 389.696 318.73 393.779 321.227L415.125 334.425C420.791 337.924 426.84 341.352 431.962 345.626 448.139 359.121 444.795 379.503 428.809 391.167 421.767 396.305 413.886 400.482 406.488 405.096 399.531 409.434 388.604 418.688 380.409 419.386z" transform="scale(.8)"></path>
</svg>
