<svg width="13" height="14" viewBox="0 0 13 14" fill="none" xmlns="http://www.w3.org/2000/svg">
<path d="M6.50394 14C6.29908 14 6.12837 13.9338 5.99179 13.8015C5.86047 13.6691 5.79481 13.4997 5.79481 13.2933V5.27283L5.85785 3.56551L3.48621 6.18605L1.72127 7.94101C1.65824 8.00454 1.58207 8.05483 1.49278 8.09189C1.40348 8.12365 1.31156 8.13953 1.21701 8.13953C1.0174 8.13953 0.851937 8.07336 0.720617 7.94101C0.59455 7.80337 0.531517 7.6366 0.531517 7.44073C0.531517 7.34543 0.549902 7.25544 0.586671 7.17073C0.628693 7.08073 0.686474 6.99338 0.760013 6.90868L5.97603 1.65173C6.04957 1.57232 6.13099 1.51144 6.22029 1.46909C6.30959 1.42673 6.40414 1.40556 6.50394 1.40556C6.59849 1.40556 6.69041 1.42673 6.77971 1.46909C6.87426 1.51144 6.95831 1.57232 7.03185 1.65173L12.24 6.90868C12.3188 6.99338 12.3766 7.08073 12.4133 7.17073C12.4554 7.25544 12.4764 7.34543 12.4764 7.44073C12.4764 7.6366 12.4107 7.80337 12.2794 7.94101C12.1533 8.07336 11.9905 8.13953 11.7909 8.13953C11.6963 8.13953 11.6044 8.12365 11.5151 8.09189C11.4258 8.05483 11.3496 8.00454 11.2866 7.94101L9.52167 6.18605L7.15003 3.57345L7.20519 5.27283V13.2933C7.20519 13.4997 7.13953 13.6691 7.00821 13.8015C6.87689 13.9338 6.7088 14 6.50394 14ZM1.17761 1.42144C0.978004 1.42144 0.815167 1.35527 0.6891 1.22292C0.563033 1.09057 0.5 0.921157 0.5 0.714691C0.5 0.508225 0.563033 0.338816 0.6891 0.206466C0.815167 0.0688221 0.978004 0 1.17761 0H11.8066C12.0115 0 12.177 0.0688221 12.303 0.206466C12.4343 0.338816 12.5 0.508225 12.5 0.714691C12.5 0.921157 12.4343 1.09057 12.303 1.22292C12.177 1.35527 12.0115 1.42144 11.8066 1.42144H1.17761Z" fill="black"/>
</svg>
