<svg width="37" height="36" viewBox="0 0 37 36" fill="none" xmlns="http://www.w3.org/2000/svg">
<g clip-path="url(#clip0_93_430)">
<path d="M18.8828 3.24141C23.6922 3.24141 24.2617 3.2625 26.1531 3.34687C27.9109 3.42422 28.8602 3.71953 29.493 3.96563C30.3297 4.28906 30.9344 4.68281 31.5602 5.30859C32.193 5.94141 32.5797 6.53906 32.9031 7.37578C33.1492 8.00859 33.4445 8.96484 33.5219 10.7156C33.6063 12.6141 33.6273 13.1836 33.6273 17.9859C33.6273 22.7953 33.6063 23.3648 33.5219 25.2563C33.4445 27.0141 33.1492 27.9633 32.9031 28.5961C32.5797 29.4328 32.1859 30.0375 31.5602 30.6633C30.9273 31.2961 30.3297 31.6828 29.493 32.0062C28.8602 32.2523 27.9039 32.5477 26.1531 32.625C24.2547 32.7094 23.6852 32.7305 18.8828 32.7305C14.0734 32.7305 13.5039 32.7094 11.6125 32.625C9.85469 32.5477 8.90547 32.2523 8.27266 32.0062C7.43594 31.6828 6.83125 31.2891 6.20547 30.6633C5.57266 30.0305 5.18594 29.4328 4.8625 28.5961C4.61641 27.9633 4.32109 27.007 4.24375 25.2563C4.15938 23.3578 4.13828 22.7883 4.13828 17.9859C4.13828 13.1766 4.15938 12.607 4.24375 10.7156C4.32109 8.95781 4.61641 8.00859 4.8625 7.37578C5.18594 6.53906 5.57969 5.93437 6.20547 5.30859C6.83828 4.67578 7.43594 4.28906 8.27266 3.96563C8.90547 3.71953 9.86172 3.42422 11.6125 3.34687C13.5039 3.2625 14.0734 3.24141 18.8828 3.24141ZM18.8828 0C13.9961 0 13.3844 0.0210937 11.4648 0.105469C9.55234 0.189844 8.2375 0.499219 7.09844 0.942187C5.91016 1.40625 4.90469 2.01797 3.90625 3.02344C2.90078 4.02187 2.28906 5.02734 1.825 6.20859C1.38203 7.35469 1.07266 8.6625 0.988281 10.575C0.903906 12.5016 0.882812 13.1133 0.882812 18C0.882812 22.8867 0.903906 23.4984 0.988281 25.418C1.07266 27.3305 1.38203 28.6453 1.825 29.7844C2.28906 30.9727 2.90078 31.9781 3.90625 32.9766C4.90469 33.975 5.91016 34.5937 7.09141 35.0508C8.2375 35.4937 9.54531 35.8031 11.4578 35.8875C13.3773 35.9719 13.9891 35.993 18.8758 35.993C23.7625 35.993 24.3742 35.9719 26.2938 35.8875C28.2063 35.8031 29.5211 35.4937 30.6602 35.0508C31.8414 34.5937 32.8469 33.975 33.8453 32.9766C34.8438 31.9781 35.4625 30.9727 35.9195 29.7914C36.3625 28.6453 36.6719 27.3375 36.7563 25.425C36.8406 23.5055 36.8617 22.8937 36.8617 18.007C36.8617 13.1203 36.8406 12.5086 36.7563 10.5891C36.6719 8.67656 36.3625 7.36172 35.9195 6.22266C35.4766 5.02734 34.8648 4.02187 33.8594 3.02344C32.8609 2.025 31.8555 1.40625 30.6742 0.949219C29.5281 0.50625 28.2203 0.196875 26.3078 0.1125C24.3813 0.0210938 23.7695 0 18.8828 0Z" fill="black"/>
<path d="M18.8828 9C13.914 9 9.88281 13.3671 9.88281 18.75C9.88281 24.1329 13.914 28.5 18.8828 28.5C23.8516 28.5 27.8828 24.1329 27.8828 18.75C27.8828 13.3671 23.8516 9 18.8828 9ZM18.8828 25.0745C15.6592 25.0745 13.0448 22.2422 13.0448 18.75C13.0448 15.2578 15.6592 12.4255 18.8828 12.4255C22.1064 12.4255 24.7208 15.2578 24.7208 18.75C24.7208 22.2422 22.1064 25.0745 18.8828 25.0745Z" fill="black"/>
<path d="M30.6531 8.38809C30.6531 9.5834 29.6828 10.5467 28.4945 10.5467C27.2992 10.5467 26.3359 9.57637 26.3359 8.38809C26.3359 7.19277 27.3063 6.22949 28.4945 6.22949C29.6828 6.22949 30.6531 7.19981 30.6531 8.38809Z" fill="black"/>
</g>
<defs>
<clipPath id="clip0_93_430">
<rect width="36" height="36" fill="white" transform="translate(0.882812)"/>
</clipPath>
</defs>
</svg>
