<svg
                  width="88"
                  height="88"
                  viewBox="0 0 88 88"
                  fill="none"
                  xmlns="http://www.w3.org/2000/svg"
                >
                  <path
                    fillRule="evenodd"
                    clipRule="evenodd"
                    d="M0 5.56656C0 2.49223 2.49223 0 5.56656 0H14.473C17.5474 0 20.0396 2.49223 20.0396 5.56656V14.473C20.0396 17.5474 17.5474 20.0396 14.473 20.0396H5.56656C2.49223 20.0396 0 17.5474 0 14.473V5.56656Z"
                    fill="#8C8E90"
                  />
                  <path
                    fillRule="evenodd"
                    clipRule="evenodd"
                    d="M0 73.5265C0 70.4522 2.49223 67.96 5.56656 67.96H14.473C17.5474 67.96 20.0396 70.4522 20.0396 73.5265V82.433C20.0396 85.5073 17.5474 87.9996 14.473 87.9996H5.56656C2.49223 87.9996 0 85.5073 0 82.433V73.5265Z"
                    fill="#8C8E90"
                  />
                  <path
                    fillRule="evenodd"
                    clipRule="evenodd"
                    d="M67.96 5.56656C67.96 2.49223 70.4522 0 73.5265 0H82.433C85.5073 0 87.9996 2.49223 87.9996 5.56656V14.473C87.9996 17.5474 85.5073 20.0396 82.433 20.0396H73.5265C70.4522 20.0396 67.96 17.5474 67.96 14.473V5.56656Z"
                    fill="#8C8E90"
                  />
                  <path
                    fillRule="evenodd"
                    clipRule="evenodd"
                    d="M67.96 39.547C67.96 36.4727 70.4522 33.9805 73.5265 33.9805H82.433C85.5073 33.9805 87.9996 36.4727 87.9996 39.547V48.4535C87.9996 51.5278 85.5073 54.0201 82.433 54.0201H73.5265C70.4522 54.0201 67.96 51.5278 67.96 48.4535V39.547Z"
                    fill="#8C8E90"
                  />
                  <path
                    fillRule="evenodd"
                    clipRule="evenodd"
                    d="M33.98 39.547C33.98 36.4727 36.4722 33.9805 39.5465 33.9805H48.453C51.5274 33.9805 54.0196 36.4727 54.0196 39.547V48.4535C54.0196 51.5278 51.5274 54.0201 48.453 54.0201H39.5465C36.4722 54.0201 33.98 51.5278 33.98 48.4535V39.547Z"
                    fill="#8C8E90"
                  />
                  <path
                    fillRule="evenodd"
                    clipRule="evenodd"
                    d="M0 39.547C0 36.4727 2.49223 33.9805 5.56656 33.9805H14.473C17.5474 33.9805 20.0396 36.4727 20.0396 39.547V48.4535C20.0396 51.5278 17.5474 54.0201 14.473 54.0201H5.56656C2.49223 54.0201 0 51.5278 0 48.4535V39.547Z"
                    fill="#8C8E90"
                  />
                  <path
                    fillRule="evenodd"
                    clipRule="evenodd"
                    d="M33.98 5.56656C33.98 2.49223 36.4722 0 39.5465 0H48.453C51.5274 0 54.0196 2.49223 54.0196 5.56656V14.473C54.0196 17.5474 51.5274 20.0396 48.453 20.0396H39.5465C36.4722 20.0396 33.98 17.5474 33.98 14.473V5.56656Z"
                    fill="#8C8E90"
                  />
                  <path
                    fillRule="evenodd"
                    clipRule="evenodd"
                    d="M33.98 73.5265C33.98 70.4522 36.4722 67.96 39.5465 67.96H48.453C51.5274 67.96 54.0196 70.4522 54.0196 73.5265V82.433C54.0196 85.5073 51.5274 87.9996 48.453 87.9996H39.5465C36.4722 87.9996 33.98 85.5073 33.98 82.433V73.5265Z"
                    fill="#8C8E90"
                  />
                  <path
                    fillRule="evenodd"
                    clipRule="evenodd"
                    d="M67.96 73.5265C67.96 70.4522 70.4522 67.96 73.5265 67.96H82.433C85.5073 67.96 87.9996 70.4522 87.9996 73.5265V82.433C87.9996 85.5073 85.5073 87.9996 82.433 87.9996H73.5265C70.4522 87.9996 67.96 85.5073 67.96 82.433V73.5265Z"
                    fill="#8C8E90"
                  />
                </svg>