<svg width="18" height="12" viewBox="0 0 18 12" fill="none" xmlns="http://www.w3.org/2000/svg">
<path d="M8.66481 11.0999C7.95475 11.0999 7.32614 10.9454 6.77898 10.6363C6.23181 10.3272 5.8016 9.89906 5.48834 9.3519C5.17926 8.80473 5.02471 8.17195 5.02471 7.45353C5.02471 6.7393 5.17926 6.1086 5.48834 5.56143C5.8016 5.01009 6.23181 4.58197 6.77898 4.27706C7.32614 3.96798 7.95475 3.81344 8.66481 3.81344H10.7887C10.8305 3.86773 10.8639 3.93039 10.889 4.00139C10.914 4.0724 10.9328 4.14549 10.9454 4.22068C10.9621 4.29586 10.9725 4.37104 10.9767 4.44622C10.9809 4.51723 10.9788 4.58615 10.9704 4.65298C10.9621 4.71563 10.9495 4.77202 10.9328 4.82214H8.73373C8.21998 4.82214 7.76471 4.93491 7.36791 5.16046C6.97111 5.38183 6.65994 5.69092 6.43439 6.08771C6.20884 6.48451 6.09607 6.93978 6.09607 7.45353C6.09607 7.97146 6.20884 8.42882 6.43439 8.82562C6.65994 9.22242 6.97111 9.53359 7.36791 9.75914C7.76471 9.98051 8.21998 10.0912 8.73373 10.0912H14.2847C14.7985 10.0912 15.2537 9.98051 15.6505 9.75914C16.0473 9.53359 16.3585 9.22242 16.5841 8.82562C16.8138 8.42882 16.9286 7.97146 16.9286 7.45353C16.9286 6.93978 16.8138 6.48451 16.5841 6.08771C16.3585 5.69092 16.0473 5.38183 15.6505 5.16046C15.2537 4.93491 14.7985 4.82214 14.2847 4.82214H13.8775C13.8984 4.65924 13.9025 4.49008 13.89 4.31465C13.8817 4.13923 13.867 3.97215 13.8462 3.81344H14.3599C15.07 3.81344 15.6986 3.96798 16.2457 4.27706C16.7929 4.58197 17.221 5.01009 17.5301 5.56143C17.8434 6.1086 18 6.7393 18 7.45353C18 8.17195 17.8434 8.80473 17.5301 9.3519C17.221 9.89906 16.7929 10.3272 16.2457 10.6363C15.6986 10.9454 15.07 11.0999 14.3599 11.0999H8.66481ZM3.6401 8.18656C2.93004 8.18656 2.30143 8.03202 1.75426 7.72294C1.2071 7.41385 0.776888 6.98573 0.463627 6.43857C0.154542 5.8914 0 5.25862 0 4.5402C0 3.82597 0.154542 3.19527 0.463627 2.6481C0.776888 2.09676 1.2071 1.66864 1.75426 1.36373C2.30143 1.05465 2.93004 0.900105 3.6401 0.900105H9.33519C10.0452 0.900105 10.6739 1.05465 11.221 1.36373C11.7682 1.66864 12.1963 2.09676 12.5054 2.6481C12.8187 3.19527 12.9753 3.82597 12.9753 4.5402C12.9753 5.25862 12.8187 5.8914 12.5054 6.43857C12.1963 6.98573 11.7682 7.41385 11.221 7.72294C10.6739 8.03202 10.0452 8.18656 9.33519 8.18656H7.20501C7.16742 8.13227 7.13401 8.06961 7.10477 7.99861C7.07971 7.9276 7.05882 7.85451 7.04212 7.77933C7.02959 7.70414 7.02123 7.63105 7.01706 7.56004C7.01706 7.48486 7.01914 7.41594 7.02332 7.35329C7.03167 7.28646 7.04629 7.22798 7.06718 7.17786H9.26627C9.77584 7.17786 10.229 7.06718 10.6258 6.84581C11.0268 6.62026 11.3401 6.30908 11.5656 5.91229C11.7912 5.51549 11.9039 5.05813 11.9039 4.5402C11.9039 4.02645 11.7891 3.57118 11.5593 3.17438C11.3338 2.77758 11.0226 2.4685 10.6258 2.24713C10.229 2.02158 9.77584 1.90881 9.26627 1.90881H3.70901C3.19527 1.90881 2.73999 2.02158 2.3432 2.24713C1.9464 2.4685 1.63522 2.77758 1.40968 3.17438C1.18413 3.57118 1.07135 4.02645 1.07135 4.5402C1.07135 5.05813 1.18413 5.51549 1.40968 5.91229C1.63522 6.30908 1.9464 6.62026 2.3432 6.84581C2.73999 7.06718 3.19527 7.17786 3.70901 7.17786H4.12252C4.10164 7.34076 4.09537 7.50992 4.10372 7.68535C4.11625 7.8566 4.13087 8.02367 4.14758 8.18656H3.6401Z" fill="black"/>
</svg>
