<svg width="11" height="19" viewBox="0 0 11 19" fill="none" xmlns="http://www.w3.org/2000/svg">
<path d="M0 16.6676V2.33239C0 1.63267 0.214008 1.07051 0.642023 0.645892C1.07004 0.215297 1.63217 0 2.3284 0H8.6716C9.37354 0 9.93567 0.215297 10.358 0.645892C10.786 1.07051 11 1.63267 11 2.33239V16.6676C11 17.3673 10.786 17.9295 10.358 18.3541C9.93567 18.7847 9.37354 19 8.6716 19H2.3284C1.63217 19 1.07004 18.7847 0.642023 18.3541C0.214008 17.9295 0 17.3673 0 16.6676ZM1.37821 15.9589H9.62179V3.04108H1.37821V15.9589ZM5.51284 18.1119C5.71258 18.1119 5.88379 18.0342 6.02646 17.8787C6.17484 17.7291 6.24903 17.5467 6.24903 17.3314C6.24903 17.1161 6.17484 16.9337 6.02646 16.7842C5.88379 16.6347 5.71258 16.56 5.51284 16.56C5.30739 16.56 5.13048 16.6347 4.9821 16.7842C4.83943 16.9337 4.76809 17.1161 4.76809 17.3314C4.76809 17.5467 4.83943 17.7291 4.9821 17.8787C5.13048 18.0342 5.30739 18.1119 5.51284 18.1119ZM5.51284 2.04533C5.64981 2.04533 5.7668 1.99449 5.86381 1.89282C5.96083 1.78517 6.00934 1.65659 6.00934 1.50708C6.00934 1.36355 5.96083 1.24095 5.86381 1.13928C5.7668 1.03761 5.64981 0.98678 5.51284 0.98678C5.37017 0.98678 5.24747 1.03761 5.14475 1.13928C5.04773 1.24095 4.99922 1.36355 4.99922 1.50708C4.99922 1.65659 5.04773 1.78517 5.14475 1.89282C5.24747 1.99449 5.37017 2.04533 5.51284 2.04533Z" fill="black"/>
</svg>
