<svg width="22" height="18" viewBox="0 0 22 18" fill="none" xmlns="http://www.w3.org/2000/svg">
<path d="M0.818859 1.5784C0.593218 1.5784 0.400331 1.50174 0.240199 1.34843C0.0800662 1.19512 0 1.00697 0 0.783972C0 0.567944 0.0800662 0.383275 0.240199 0.229965C0.400331 0.0766551 0.593218 0 0.818859 0H21.1593C21.3922 0 21.5888 0.0766551 21.7489 0.229965C21.9163 0.383275 22 0.567944 22 0.783972C22 1.00697 21.9163 1.19512 21.7489 1.34843C21.5888 1.50174 21.3922 1.5784 21.1593 1.5784H0.818859ZM0.818859 18C0.593218 18 0.400331 17.9233 0.240199 17.77C0.0800662 17.6237 0 17.439 0 17.216C0 16.993 0.0800662 16.8049 0.240199 16.6516C0.400331 16.4983 0.593218 16.4216 0.818859 16.4216H13.1017C13.3347 16.4216 13.5312 16.4983 13.6913 16.6516C13.8514 16.8049 13.9315 16.993 13.9315 17.216C13.9315 17.439 13.8514 17.6237 13.6913 17.77C13.5312 17.9233 13.3347 18 13.1017 18H0.818859ZM0.818859 12.5331C0.593218 12.5331 0.400331 12.4564 0.240199 12.3031C0.0800662 12.1498 0 11.9617 0 11.7387C0 11.5157 0.0800662 11.331 0.240199 11.1847C0.400331 11.0314 0.593218 10.9547 0.818859 10.9547H21.1593C21.3922 10.9547 21.5888 11.0314 21.7489 11.1847C21.9163 11.331 22 11.5157 22 11.7387C22 11.9617 21.9163 12.1498 21.7489 12.3031C21.5888 12.4564 21.3922 12.5331 21.1593 12.5331H0.818859ZM0.818859 7.05575C0.593218 7.05575 0.400331 6.97909 0.240199 6.82578C0.0800662 6.67247 0 6.48432 0 6.26132C0 6.03833 0.0800662 5.85366 0.240199 5.70732C0.400331 5.55401 0.593218 5.47735 0.818859 5.47735H13.1017C13.3347 5.47735 13.5312 5.55401 13.6913 5.70732C13.8514 5.85366 13.9315 6.03833 13.9315 6.26132C13.9315 6.48432 13.8514 6.67247 13.6913 6.82578C13.5312 6.97909 13.3347 7.05575 13.1017 7.05575H0.818859Z" fill="black"/>
</svg>
