<svg width="69" height="69" viewBox="0 0 69 69" fill="none" xmlns="http://www.w3.org/2000/svg">
<path d="M69 34.5C69 43.65 65.3652 52.4252 58.8952 58.8952C52.4252 65.3652 43.65 69 34.5 69C25.35 69 16.5748 65.3652 10.1048 58.8952C3.63481 52.4252 0 43.65 0 34.5C0 25.35 3.63481 16.5748 10.1048 10.1048C16.5748 3.63481 25.35 0 34.5 0C43.65 0 52.4252 3.63481 58.8952 10.1048C65.3652 16.5748 69 25.35 69 34.5ZM29.2819 21.9636C28.9595 21.734 28.5801 21.5976 28.1853 21.5693C27.7905 21.5411 27.3956 21.622 27.0437 21.8033C26.6919 21.9845 26.3967 22.2591 26.1906 22.597C25.9844 22.9349 25.8752 23.323 25.875 23.7188V45.2812C25.8752 45.677 25.9844 46.0651 26.1906 46.403C26.3967 46.7409 26.6919 47.0155 27.0437 47.1967C27.3956 47.378 27.7905 47.4589 28.1853 47.4307C28.5801 47.4024 28.9595 47.266 29.2819 47.0364L44.3756 36.2552C44.6551 36.0557 44.883 35.7924 45.0402 35.4871C45.1974 35.1818 45.2794 34.8434 45.2794 34.5C45.2794 34.1566 45.1974 33.8182 45.0402 33.5129C44.883 33.2076 44.6551 32.9443 44.3756 32.7448L29.2819 21.9636Z" fill="black"/>
</svg>
