<svg width="18" height="16" viewBox="0 0 18 16" fill="none" xmlns="http://www.w3.org/2000/svg">
<path d="M2.39695 15.0267C1.59796 15.0267 0.997455 14.8282 0.59542 14.4313C0.198473 14.0394 0 13.4491 0 12.6603V3.33969C0 2.55089 0.198473 1.96056 0.59542 1.5687C0.997455 1.17176 1.59796 0.973282 2.39695 0.973282H15.6031C16.4071 0.973282 17.0076 1.17176 17.4046 1.5687C17.8015 1.96056 18 2.55089 18 3.33969V12.6603C18 13.4491 17.8015 14.0394 17.4046 14.4313C17.0076 14.8282 16.4071 15.0267 15.6031 15.0267H2.39695ZM2.41221 13.7977H15.5878C15.9644 13.7977 16.2545 13.6985 16.458 13.5C16.6667 13.2964 16.771 12.9962 16.771 12.5992V3.40076C16.771 3.00382 16.6667 2.70611 16.458 2.50763C16.2545 2.30407 15.9644 2.20229 15.5878 2.20229H2.41221C2.03053 2.20229 1.73791 2.30407 1.53435 2.50763C1.33079 2.70611 1.22901 3.00382 1.22901 3.40076V12.5992C1.22901 12.9962 1.33079 13.2964 1.53435 13.5C1.73791 13.6985 2.03053 13.7977 2.41221 13.7977ZM6.05344 13.2099C5.94657 13.2099 5.86005 13.1794 5.79389 13.1183C5.72774 13.0522 5.69466 12.9656 5.69466 12.8588C5.69466 12.7519 5.72774 12.6654 5.79389 12.5992C5.86005 12.5331 5.94657 12.5 6.05344 12.5H11.9542C12.056 12.5 12.1399 12.5331 12.2061 12.5992C12.2723 12.6654 12.3053 12.7519 12.3053 12.8588C12.3053 12.9656 12.2723 13.0522 12.2061 13.1183C12.1399 13.1794 12.056 13.2099 11.9542 13.2099H6.05344Z" fill="black"/>
</svg>
