<svg width="23" height="20" viewBox="0 0 23 20" fill="none" xmlns="http://www.w3.org/2000/svg">
<path d="M10.4225 20C10.1594 20 9.91404 19.9418 9.68646 19.8255C9.45887 19.7165 9.21707 19.5383 8.96104 19.2912L0.544063 11.1668C0.337817 10.9706 0.195578 10.7706 0.117347 10.5671C0.0391157 10.3635 0 10.1745 0 10C0 9.81825 0.0391157 9.62559 0.117347 9.42203C0.195578 9.21847 0.337817 9.01854 0.544063 8.82225L8.96104 0.774264C9.24552 0.498001 9.49088 0.301708 9.69712 0.185387C9.90337 0.0617957 10.1381 0 10.4012 0C10.7781 0 11.084 0.130862 11.3186 0.392585C11.5533 0.654308 11.6707 0.966921 11.6707 1.33043V5.45256H11.9801C13.9003 5.45256 15.5538 5.75427 16.9406 6.35769C18.3346 6.9611 19.476 7.83351 20.365 8.97492C21.2611 10.1163 21.9225 11.494 22.3493 13.108C22.7831 14.7146 23 16.5249 23 18.5387C23 19.0113 22.8862 19.3711 22.6586 19.6183C22.4382 19.8728 22.1857 20 21.9012 20C21.6736 20 21.4425 19.9527 21.2078 19.8582C20.9802 19.7637 20.774 19.542 20.5891 19.193C19.9703 18.0007 19.2556 17.0702 18.4448 16.4013C17.634 15.7252 16.6988 15.249 15.6391 14.9727C14.5795 14.6965 13.3598 14.5583 11.9801 14.5583H11.6707V18.7241C11.6707 19.0949 11.5533 19.4002 11.3186 19.6401C11.084 19.88 10.7853 20 10.4225 20ZM9.81447 17.6554C9.90693 17.6554 9.95315 17.6009 9.95315 17.4918V13.2715C9.95315 13.0316 10.0741 12.9117 10.3159 12.9117H11.7454C13.438 12.9117 14.9208 13.1007 16.1939 13.4787C17.474 13.8495 18.5408 14.3766 19.3942 15.06C20.2477 15.7434 20.8842 16.5394 21.3038 17.4482C21.318 17.4846 21.3323 17.5136 21.3465 17.5354C21.3607 17.55 21.3785 17.5573 21.3998 17.5573C21.4567 17.5573 21.4852 17.5173 21.4852 17.4373C21.4425 16.4122 21.3074 15.4017 21.0798 14.4057C20.8593 13.4024 20.5215 12.4609 20.0663 11.5812C19.6112 10.7016 19.0138 9.9273 18.2741 9.25845C17.5345 8.58233 16.6277 8.05525 15.5538 7.67721C14.4799 7.29189 13.2104 7.09924 11.7454 7.09924H10.3159C10.0741 7.09924 9.95315 6.97928 9.95315 6.73937V2.41003C9.95315 2.30825 9.90337 2.25736 9.8038 2.25736C9.76824 2.25736 9.73624 2.26827 9.70779 2.29008C9.67934 2.30462 9.6509 2.32279 9.62245 2.3446L2.0269 9.7928C1.94867 9.8655 1.90955 9.93457 1.90955 10C1.90955 10.0291 1.91667 10.0618 1.93089 10.0981C1.95223 10.1272 1.98423 10.1636 2.0269 10.2072L9.63312 17.5573C9.69001 17.6227 9.75046 17.6554 9.81447 17.6554Z" fill="black"/>
</svg>
