<svg width="37" height="36" viewBox="0 0 37 36" fill="none" xmlns="http://www.w3.org/2000/svg">
<path d="M18.2812 24.8397C17.2188 24.6515 16.3333 24.3803 15.625 24.0262C14.9167 23.6609 14.3024 23.2127 13.7822 22.6814C12.432 21.3423 11.5355 19.8703 11.0928 18.2654C10.6501 16.6495 10.6501 15.0392 11.0928 13.4344C11.5465 11.8296 12.4375 10.3631 13.7656 9.03496L19.4268 3.35723C20.7549 2.0291 22.2214 1.14369 23.8262 0.700979C25.431 0.247203 27.0358 0.241669 28.6406 0.684377C30.2565 1.12709 31.7396 2.02357 33.0898 3.37383C34.429 4.71302 35.32 6.19056 35.7627 7.80645C36.2054 9.41127 36.1999 11.0161 35.7461 12.6209C35.3034 14.2257 34.4235 15.6922 33.1064 17.0203L28.2256 21.8846C28.3141 21.3423 28.3252 20.7778 28.2588 20.1912C28.2035 19.6046 28.0596 19.0457 27.8271 18.5145L31.0811 15.2605C32.0439 14.2977 32.6859 13.2352 33.0068 12.073C33.3278 10.9109 33.3278 9.74883 33.0068 8.58672C32.6859 7.41354 32.0439 6.34551 31.0811 5.38262C30.1071 4.40866 29.0391 3.76673 27.877 3.45684C26.7148 3.13587 25.5527 3.13587 24.3906 3.45684C23.2285 3.7778 22.1605 4.41973 21.1865 5.38262L15.7744 10.7947C14.8115 11.7576 14.1696 12.8201 13.8486 13.9822C13.5277 15.1443 13.5277 16.312 13.8486 17.4852C14.1696 18.6473 14.8171 19.7153 15.791 20.6893C16.3333 21.2316 16.9753 21.6632 17.7168 21.9842C18.4694 22.3051 19.3936 22.5099 20.4893 22.5984L18.2812 24.8397ZM18.6963 11.16C19.7588 11.3481 20.6442 11.6248 21.3525 11.99C22.0609 12.3442 22.6751 12.7869 23.1953 13.3182C24.5456 14.6574 25.4421 16.1349 25.8848 17.7508C26.3275 19.3556 26.3219 20.9604 25.8682 22.5652C25.4255 24.1701 24.54 25.6365 23.2119 26.9647L17.5342 32.659C16.2171 33.976 14.7562 34.8559 13.1514 35.2986C11.5465 35.7524 9.9362 35.7579 8.32031 35.3152C6.71549 34.8725 5.23796 33.976 3.8877 32.6258C2.5485 31.2866 1.65755 29.8146 1.21484 28.2098C0.772135 26.5939 0.772135 24.9835 1.21484 23.3787C1.66862 21.7739 2.55404 20.3074 3.87109 18.9793L8.75195 14.115C8.66341 14.6574 8.64681 15.2273 8.70215 15.825C8.76855 16.4116 8.91797 16.965 9.15039 17.4852L5.89648 20.7391C4.93359 21.702 4.29167 22.7645 3.9707 23.9266C3.64974 25.0887 3.64974 26.2563 3.9707 27.4295C4.29167 28.5916 4.93359 29.6596 5.89648 30.6336C6.85938 31.5965 7.92188 32.2329 9.08398 32.5428C10.2572 32.8637 11.4248 32.8637 12.5869 32.5428C13.749 32.2218 14.8115 31.5799 15.7744 30.617L21.2031 25.2049C22.166 24.242 22.8024 23.1795 23.1123 22.0174C23.4333 20.8553 23.4333 19.6932 23.1123 18.5311C22.7913 17.3579 22.1494 16.2843 21.1865 15.3104C20.6442 14.768 19.9967 14.3364 19.2441 14.0154C18.5026 13.6945 17.584 13.4897 16.4883 13.4012L18.6963 11.16Z" fill="black"/>
</svg>
