<svg width="15" height="20" viewBox="0 0 15 20" fill="none" xmlns="http://www.w3.org/2000/svg">
<path d="M2.48654 20C1.74446 20 1.14303 19.784 0.682226 19.352C0.227409 18.92 0 18.3548 0 17.6565V2.35242C0 1.64817 0.227409 1.08004 0.682226 0.648025C1.14303 0.216008 1.74446 0 2.48654 0H12.5135C13.2555 0 13.854 0.216008 14.3088 0.648025C14.7696 1.08004 15 1.64817 15 2.35242V17.6565C15 18.3548 14.7696 18.92 14.3088 19.352C13.854 19.784 13.2555 20 12.5135 20H2.48654ZM1.44524 16.9907H13.5548V3.0182H1.44524V16.9907ZM7.51347 19.1212C7.72292 19.1212 7.90245 19.0442 8.05206 18.8904C8.20766 18.7424 8.28546 18.5619 8.28546 18.3489C8.28546 18.1358 8.20766 17.9553 8.05206 17.8074C7.90245 17.6594 7.72292 17.5854 7.51347 17.5854C7.29803 17.5854 7.11251 17.6594 6.95691 17.8074C6.8073 17.9553 6.7325 18.1358 6.7325 18.3489C6.7325 18.5619 6.8073 18.7424 6.95691 18.8904C7.11251 19.0442 7.29803 19.1212 7.51347 19.1212ZM7.49551 2.11274C7.62717 2.11274 7.74087 2.06539 7.83663 1.97071C7.93836 1.87602 7.98923 1.76062 7.98923 1.6245C7.98923 1.4943 7.93836 1.38186 7.83663 1.28717C7.74087 1.18657 7.62717 1.13626 7.49551 1.13626C7.36385 1.13626 7.25015 1.18657 7.1544 1.28717C7.05865 1.38186 7.01077 1.4943 7.01077 1.6245C7.01077 1.76062 7.05865 1.87602 7.1544 1.97071C7.25015 2.06539 7.36385 2.11274 7.49551 2.11274Z" fill="black"/>
</svg>
