<svg width="18" height="18" viewBox="0 0 18 18" fill="none" xmlns="http://www.w3.org/2000/svg">
<path d="M9.49959 17.1374C8.92483 17.7124 8.34203 17.9999 7.75116 17.9999C7.16029 18.0053 6.56943 17.7151 5.97856 17.1294L0.878314 12.0349C0.287448 11.4438 -0.00529892 10.8526 7.2588e-05 10.2615C0.0054441 9.67036 0.295506 9.08729 0.870257 8.51228L8.75026 0.64487C8.94901 0.446035 9.12895 0.300939 9.2901 0.209583C9.45661 0.118226 9.63656 0.0618 9.82993 0.0403044C10.0233 0.0134348 10.2597 0 10.539 0H13.6088C13.8935 0 14.1245 0.0268696 14.3017 0.0806087C14.4843 0.128974 14.6509 0.214957 14.8013 0.338557C14.9517 0.456783 15.1289 0.615313 15.333 0.814148L17.1862 2.66815C17.3903 2.87236 17.5515 3.05238 17.6697 3.20823C17.7878 3.3587 17.8711 3.52529 17.9194 3.708C17.9731 3.88534 18 4.11642 18 4.40124V7.46437C18 7.74918 17.9866 7.98832 17.9597 8.18178C17.9382 8.36987 17.8818 8.54721 17.7905 8.7138C17.7046 8.87502 17.5595 9.05773 17.3554 9.26194L9.49959 17.1374ZM8.6294 16.162L16.4449 8.343C16.5255 8.26239 16.5873 8.17641 16.6303 8.08505C16.6786 7.9937 16.7028 7.88085 16.7028 7.7465V4.34481C16.7028 4.12448 16.6168 3.92833 16.4449 3.75637L14.2453 1.56381C14.0734 1.38647 13.8774 1.2978 13.6571 1.2978H10.265C10.1307 1.2978 10.0153 1.32198 9.91856 1.37035C9.82725 1.41871 9.7413 1.4832 9.66073 1.56381L1.83713 9.37479C1.55244 9.65961 1.40741 9.95518 1.40204 10.2615C1.40204 10.5624 1.54975 10.8607 1.84519 11.1562L6.84875 16.154C7.14418 16.4549 7.4423 16.6027 7.7431 16.5973C8.04391 16.5973 8.33934 16.4522 8.6294 16.162ZM12.6661 6.4487C12.3492 6.4487 12.086 6.34122 11.8765 6.12626C11.667 5.91131 11.5622 5.65067 11.5622 5.34436C11.5622 5.03267 11.667 4.77204 11.8765 4.56245C12.086 4.3475 12.3492 4.24002 12.6661 4.24002C12.983 4.24002 13.2462 4.3475 13.4557 4.56245C13.6652 4.77204 13.7699 5.03267 13.7699 5.34436C13.7699 5.65067 13.6652 5.91131 13.4557 6.12626C13.2462 6.34122 12.983 6.4487 12.6661 6.4487Z" fill="black"/>
</svg>
