<svg width="14" height="14" viewBox="0 0 14 14" fill="none" xmlns="http://www.w3.org/2000/svg">
<path d="M14 10.4597C14 10.7188 13.9115 10.9337 13.7346 11.1043C13.564 11.2749 13.3649 11.3602 13.1374 11.3602C12.9036 11.3602 12.7014 11.2717 12.5308 11.0948C12.3665 10.9179 12.2844 10.7188 12.2844 10.4977V6.99054L12.455 2.564L10.891 4.33651L1.47867 13.7394C1.39652 13.8278 1.30174 13.891 1.19431 13.9289C1.09321 13.9732 0.988941 13.9953 0.881517 13.9953C0.723539 13.9953 0.578199 13.9542 0.445498 13.8721C0.312796 13.7899 0.205371 13.6825 0.123223 13.5498C0.0410742 13.4108 0 13.2654 0 13.1138C0 12.8926 0.0884676 12.6935 0.265403 12.5166L9.65877 3.10429L11.4218 1.55926L6.79621 1.71092H3.49763C3.27646 1.71092 3.07741 1.62877 2.90047 1.46448C2.72986 1.29386 2.64455 1.09481 2.64455 0.86732C2.64455 0.639832 2.7267 0.44078 2.891 0.270164C3.05529 0.0932284 3.27014 0.00476074 3.53554 0.00476074H13.0711C13.3554 0.00476074 13.5798 0.0900688 13.7441 0.260685C13.9084 0.431301 13.9905 0.65247 13.9905 0.924192L14 10.4597Z" fill="black" fill-opacity="1"/>
</svg>
