<svg
                  width="111"
                  height="95"
                  viewBox="0 0 111 95"
                  fill="none"
                  xmlns="http://www.w3.org/2000/svg"
                >
                  <path
                    d="M68.7017 65.318H89.2768C94.1042 65.318 97.7395 64.2154 100.183 62.0102C102.655 59.7756 103.891 56.9677 103.891 53.5863C103.891 49.7934 102.685 46.662 100.271 44.1922C97.8866 41.7224 94.6929 40.0464 90.6897 39.1643C90.1599 39.0761 89.9244 38.738 89.9833 38.15C90.0716 37.1209 90.1305 36.0477 90.1599 34.9304C90.2188 33.7837 90.2188 32.7105 90.1599 31.7108C89.9244 27.3298 88.7176 23.2722 86.5394 19.5381C84.3612 15.8039 81.4177 12.8049 77.7088 10.5409C74 8.24745 69.7319 7.10074 64.9045 7.10074C61.1074 7.10074 57.7959 7.7329 54.9702 8.99721C52.1738 10.2615 49.7749 11.9522 47.7733 14.0692C45.7717 16.1568 44.0497 18.4796 42.6074 21.0376C42.3719 21.4492 42.004 21.5816 41.5036 21.4345C38.4718 20.5525 35.5135 20.4348 32.6289 21.0817C29.7442 21.6992 27.36 23.2281 25.4761 25.6685C23.5923 28.0795 22.6504 31.5491 22.6504 36.0771C22.6504 36.6945 22.3707 37.0033 21.8115 37.0033C17.1313 37.0033 13.5107 38.3999 10.9499 41.1931C8.38902 43.957 7.10859 47.4559 7.10859 51.6899C7.10859 54.2185 7.71201 56.5119 8.91885 58.5701C10.1257 60.6283 11.9065 62.2748 14.2613 63.5097C16.6456 64.7153 19.5744 65.318 23.0477 65.318H42.6957V72.4188H23.0919C18.2645 72.4188 14.1289 71.4926 10.685 69.6402C7.24105 67.7584 4.59189 65.2592 2.73747 62.1425C0.91249 58.9964 0 55.5122 0 51.6899C0 48.2204 0.647574 45.0596 1.94272 42.2075C3.2673 39.3555 5.13644 37.0033 7.55012 35.1509C9.99324 33.2691 12.8779 32.0783 16.2041 31.5785C16.2629 28.4618 16.9988 25.6832 18.4117 23.2428C19.854 20.8024 21.7084 18.7883 23.9749 17.2006C26.2414 15.5834 28.6993 14.4955 31.3484 13.9369C34.0271 13.3782 36.6173 13.437 39.1193 14.1133C40.8854 11.5552 43.0048 9.20303 45.4773 7.05664C47.9793 4.91024 50.8345 3.20489 54.043 1.94058C57.2808 0.646859 60.9014 0 64.9045 0C69.4375 0 73.6468 0.837976 77.5322 2.51393C81.4471 4.18988 84.8616 6.54209 87.7757 9.57057C90.7192 12.599 93.0004 16.1862 94.6193 20.3319C96.2383 24.4483 97.0477 28.9616 97.0477 33.8719C101.375 35.636 104.774 38.2529 107.247 41.7224C109.749 45.1625 111 49.1171 111 53.5863C111 57.1441 110.132 60.349 108.395 63.201C106.688 66.0237 104.215 68.273 100.977 69.9489C97.7395 71.5955 93.854 72.4188 89.321 72.4188H68.7017V65.318ZM55.7208 95C54.7494 95 53.9105 94.6619 53.2041 93.9856C52.527 93.3093 52.1885 92.5155 52.1885 91.604V50.2344L52.4535 42.0752L49.4952 45.2066L42.784 51.8663C42.0776 52.572 41.2681 52.9248 40.3556 52.9248C39.4431 52.9248 38.6778 52.6455 38.0597 52.0868C37.471 51.4988 37.1766 50.749 37.1766 49.8375C37.1766 49.3671 37.2649 48.9407 37.4415 48.5585C37.6181 48.1763 37.8831 47.8234 38.2363 47.5L53.1599 33.5631C53.6309 33.1515 54.0577 32.8575 54.4403 32.6811C54.823 32.5046 55.2498 32.4164 55.7208 32.4164C56.1623 32.4164 56.5744 32.5046 56.957 32.6811C57.3691 32.8575 57.7959 33.1515 58.2375 33.5631L73.1611 47.5C73.5143 47.8234 73.7792 48.1763 73.9558 48.5585C74.1325 48.9407 74.2208 49.3671 74.2208 49.8375C74.2208 50.749 73.9117 51.4988 73.2936 52.0868C72.6754 52.6455 71.9101 52.9248 70.9976 52.9248C70.1146 52.9248 69.3198 52.572 68.6134 51.8663L61.9021 45.2066L58.9439 42.0752L59.2088 50.2344V91.604C59.2088 92.5155 58.8556 93.3093 58.1492 93.9856C57.4722 94.6619 56.6627 95 55.7208 95Z"
                    fill="black"
                  />
                </svg>