<svg width="27" height="19" viewBox="0 0 27 19" fill="none" xmlns="http://www.w3.org/2000/svg">
<path d="M12.4429 18.097C10.8524 18.097 10.0571 17.5797 10.0571 16.5453C10.0571 15.9116 10.2511 15.236 10.639 14.5183C11.0269 13.8006 11.5862 13.125 12.3168 12.4914C13.0539 11.8513 13.9429 11.3308 14.9838 10.93C16.0312 10.5291 17.2144 10.3287 18.5334 10.3287C19.8459 10.3287 21.0226 10.5291 22.0636 10.93C23.111 11.3308 24 11.8513 24.7306 12.4914C25.4677 13.125 26.0302 13.8006 26.4181 14.5183C26.806 15.236 27 15.9116 27 16.5453C27 17.5797 26.208 18.097 24.6239 18.097H12.4429ZM11.9774 16.6325H25.0894C25.2123 16.6325 25.2996 16.6131 25.3513 16.5744C25.4095 16.5356 25.4386 16.4644 25.4386 16.361C25.4386 15.9666 25.2866 15.5108 24.9828 14.9935C24.6853 14.4698 24.2425 13.9655 23.6541 13.4806C23.0657 12.9957 22.3416 12.5948 21.4817 12.278C20.6282 11.9547 19.6455 11.7931 18.5334 11.7931C17.4213 11.7931 16.4353 11.9547 15.5754 12.278C14.7155 12.5948 13.9914 12.9957 13.403 13.4806C12.8211 13.9655 12.3782 14.4698 12.0744 14.9935C11.7705 15.5108 11.6185 15.9666 11.6185 16.361C11.6185 16.4644 11.6444 16.5356 11.6961 16.5744C11.7543 16.6131 11.8481 16.6325 11.9774 16.6325ZM18.5334 8.9903C17.764 8.9903 17.0625 8.78664 16.4289 8.37931C15.7953 7.96552 15.2909 7.41595 14.9159 6.7306C14.5409 6.03879 14.3502 5.27909 14.3438 4.45151C14.3438 3.63039 14.5312 2.88362 14.9062 2.21121C15.2877 1.53879 15.7953 1.00216 16.4289 0.601293C17.0625 0.200431 17.764 0 18.5334 0C19.3093 0 20.014 0.197198 20.6476 0.591595C21.2812 0.985991 21.7856 1.5194 22.1606 2.19181C22.5356 2.85776 22.7231 3.60453 22.7231 4.43211C22.7231 5.26616 22.5323 6.0291 22.1509 6.72091C21.7759 7.40625 21.2716 7.95582 20.6379 8.36961C20.0043 8.78341 19.3028 8.9903 18.5334 8.9903ZM18.5334 7.52586C19.0119 7.52586 19.4483 7.38685 19.8427 7.10884C20.2435 6.83082 20.5636 6.45905 20.8028 5.99353C21.042 5.52155 21.1616 5.00108 21.1616 4.43211C21.1616 3.86961 21.042 3.3653 20.8028 2.91918C20.57 2.46659 20.2532 2.11099 19.8524 1.85237C19.458 1.59375 19.0183 1.46444 18.5334 1.46444C18.055 1.46444 17.6153 1.59698 17.2144 1.86207C16.82 2.12716 16.5032 2.48599 16.264 2.93858C16.0248 3.3847 15.9052 3.88901 15.9052 4.45151C15.9052 5.02047 16.0248 5.53772 16.264 6.00323C16.5097 6.46875 16.8297 6.84052 17.2241 7.11853C17.625 7.39009 18.0614 7.52586 18.5334 7.52586ZM1.96875 18.097C1.31573 18.097 0.824353 17.9612 0.494612 17.6897C0.164871 17.4246 0 17.0237 0 16.4871C0 15.6789 0.190733 14.9062 0.572198 14.1692C0.953664 13.4321 1.4806 12.7726 2.15302 12.1907C2.8319 11.6088 3.61422 11.1498 4.5 10.8136C5.39224 10.4774 6.34591 10.3093 7.36099 10.3093C7.89763 10.3093 8.4181 10.3578 8.92241 10.4547C9.42672 10.5453 9.91164 10.6843 10.3772 10.8718C10.8491 11.0528 11.2953 11.2823 11.7155 11.5603C11.4957 11.7091 11.2953 11.8707 11.1142 12.0453C10.9332 12.2134 10.7683 12.3944 10.6196 12.5884C10.3028 12.4009 9.96983 12.2457 9.62069 12.1228C9.27802 12 8.91595 11.9062 8.53448 11.8416C8.15948 11.7769 7.76832 11.7446 7.36099 11.7446C6.56573 11.7446 5.8125 11.8739 5.10129 12.1325C4.39009 12.3847 3.7597 12.7306 3.21013 13.1703C2.66056 13.6099 2.22737 14.1078 1.91056 14.6638C1.60022 15.2198 1.44504 15.7985 1.44504 16.3998C1.44504 16.4903 1.46767 16.555 1.51293 16.5938C1.55819 16.639 1.63254 16.6616 1.73599 16.6616H8.83513C8.80927 16.8621 8.82866 17.0528 8.89332 17.2338C8.95797 17.4213 9.04849 17.5894 9.16487 17.7381C9.28772 17.8933 9.42672 18.0129 9.5819 18.097H1.96875ZM7.37069 9.20366C6.70474 9.20366 6.09698 9.02586 5.54741 8.67026C4.99784 8.30819 4.55819 7.82651 4.22845 7.22522C3.89871 6.62392 3.73384 5.95797 3.73384 5.22737C3.72737 4.51616 3.88901 3.86315 4.21875 3.26832C4.54849 2.67349 4.98815 2.20151 5.53772 1.85237C6.09375 1.49677 6.70474 1.31897 7.37069 1.31897C8.0431 1.31897 8.65409 1.49353 9.20366 1.84267C9.75323 2.19181 10.1897 2.66056 10.5129 3.24892C10.8427 3.83728 11.0075 4.4903 11.0075 5.20797C11.0075 5.94504 10.8427 6.61746 10.5129 7.22522C10.1832 7.82651 9.74354 8.30819 9.19397 8.67026C8.6444 9.02586 8.03664 9.20366 7.37069 9.20366ZM7.37069 7.75862C7.76509 7.75862 8.13039 7.64547 8.46659 7.41918C8.8028 7.19289 9.07112 6.88578 9.27155 6.49784C9.47198 6.10991 9.5722 5.67996 9.5722 5.20797C9.5722 4.74892 9.47198 4.33513 9.27155 3.96659C9.07759 3.59806 8.8125 3.30711 8.47629 3.09375C8.14655 2.87392 7.77802 2.76401 7.37069 2.76401C6.96983 2.76401 6.60129 2.87392 6.26509 3.09375C5.93534 3.31358 5.67026 3.61099 5.46983 3.98599C5.27586 4.36099 5.17888 4.77478 5.17888 5.22737C5.17888 5.69289 5.27909 6.11961 5.47953 6.50754C5.67996 6.88901 5.94504 7.19289 6.27478 7.41918C6.61099 7.64547 6.97629 7.75862 7.37069 7.75862Z" fill="white"/>
</svg>
