<svg
                  width="66"
                  height="53"
                  viewBox="0 0 66 53"
                  fill="none"
                  xmlns="http://www.w3.org/2000/svg"
                >
                  <path
                    fillRule="evenodd"
                    clipRule="evenodd"
                    d="M0 3.3125C0 1.48306 1.48306 0 3.3125 0H49.6875C51.5169 0 53 1.48306 53 3.3125V43.0625C53 48.5508 48.5508 53 43.0625 53H9.9375C4.44917 53 0 48.5508 0 43.0625V3.3125ZM6.625 6.625V43.0625C6.625 44.8919 8.10806 46.375 9.9375 46.375H43.0625C44.8919 46.375 46.375 44.8919 46.375 43.0625V6.625H6.625Z"
                    fill="black"
                  />
                  <path
                    fillRule="evenodd"
                    clipRule="evenodd"
                    d="M57.7164 11.1993C61.9241 10.1631 66 13.2981 66 17.5707V35.4293C66 39.7019 61.9241 42.8369 57.7164 41.8007L48.5249 39.537C47.041 39.1715 46 37.8581 46 36.3513V16.6487C46 15.1419 47.041 13.8285 48.5249 13.463L57.7164 11.1993ZM52.6667 19.2126V33.7874L59.3333 35.4293L59.3333 17.5707L52.6667 19.2126Z"
                    fill="black"
                  />
                </svg>