<svg
                  width="118"
                  height="74"
                  viewBox="0 0 118 74"
                  fill="none"
                  xmlns="http://www.w3.org/2000/svg"
                >
                  <path
                    d="M48.783 59.8956C49.1238 59.5451 49.5305 59.2664 49.9792 59.0759C50.428 58.8853 50.9099 58.7866 51.3969 58.7856H66.0815C66.5685 58.7866 67.0504 58.8853 67.4991 59.0759C67.9479 59.2664 68.3545 59.5451 68.6954 59.8956C69.9803 61.2054 71.5589 62.4634 73.1229 63.566C74.8913 64.8063 76.7355 65.9333 78.6443 66.9404L78.7177 66.9848H78.7397C79.4829 67.3559 80.0794 67.9698 80.4322 68.7263C80.7849 69.4828 80.8731 70.3374 80.6824 71.1508C80.4917 71.9643 80.0333 72.6887 79.3819 73.2061C78.7305 73.7235 77.9244 74.0033 77.0951 74H40.3833C39.5567 73.9999 38.7542 73.7187 38.1059 73.2017C37.4575 72.6848 37.0013 71.9625 36.811 71.1517C36.6207 70.3409 36.7075 69.4891 37.0573 68.7342C37.4072 67.9793 37.9996 67.3655 38.7386 66.9922L38.7533 66.9848L38.8268 66.9404C39.359 66.6704 39.883 66.3841 40.398 66.082C41.7498 65.2966 43.07 64.4573 44.3555 63.566C45.9268 62.456 47.4981 61.2054 48.783 59.8956ZM51.3969 25.9C51.3969 23.9374 52.1704 22.0552 53.5474 20.6674C54.9243 19.2796 56.7919 18.5 58.7392 18.5C60.6865 18.5 62.5541 19.2796 63.931 20.6674C65.308 22.0552 66.0815 23.9374 66.0815 25.9C66.0815 27.8626 65.308 29.7448 63.931 31.1326C62.5541 32.5204 60.6865 33.3 58.7392 33.3C56.7919 33.3 54.9243 32.5204 53.5474 31.1326C52.1704 29.7448 51.3969 27.8626 51.3969 25.9Z"
                    fill="#909090"
                  />
                  <path
                    d="M14.6847 0C10.7901 0 7.05496 1.55928 4.30105 4.33482C1.54713 7.11035 0 10.8748 0 14.8L0 37C0 40.9252 1.54713 44.6896 4.30105 47.4652C7.05496 50.2407 10.7901 51.8 14.6847 51.8H102.793C106.687 51.8 110.423 50.2407 113.176 47.4652C115.93 44.6896 117.478 40.9252 117.478 37V14.8C117.478 10.8748 115.93 7.11035 113.176 4.33482C110.423 1.55928 106.687 0 102.793 0H14.6847ZM58.7388 11.1C62.6334 11.1 66.3685 12.6593 69.1224 15.4348C71.8763 18.2104 73.4235 21.9748 73.4235 25.9C73.4235 29.8252 71.8763 33.5896 69.1224 36.3652C66.3685 39.1407 62.6334 40.7 58.7388 40.7C54.8441 40.7 51.109 39.1407 48.3551 36.3652C45.6012 33.5896 44.0541 29.8252 44.0541 25.9C44.0541 21.9748 45.6012 18.2104 48.3551 15.4348C51.109 12.6593 54.8441 11.1 58.7388 11.1ZM91.7793 29.6C90.8057 29.6 89.8719 29.2102 89.1834 28.5163C88.4949 27.8224 88.1082 26.8813 88.1082 25.9C88.1082 24.9187 88.4949 23.9776 89.1834 23.2837C89.8719 22.5898 90.8057 22.2 91.7793 22.2C92.753 22.2 93.6868 22.5898 94.3752 23.2837C95.0637 23.9776 95.4505 24.9187 95.4505 25.9C95.4505 26.8813 95.0637 27.8224 94.3752 28.5163C93.6868 29.2102 92.753 29.6 91.7793 29.6Z"
                    fill="#909090"
                  />
                </svg>